<svg width="100" height="100" xmlns="http://www.w3.org/2000/svg"><path d="M39.14 34.769a10.932 10.932 0 0 1-7.17 13.697 10.932 10.932 0 0 1-13.697-7.168A10.932 10.932 0 0 1 25.44 27.6a10.932 10.932 0 0 1 13.698 7.165l-10.432 3.267z" fill="#fff"/><path d="M33.456 37.586A7.433 7.433 0 0 1 28.58 46.9a7.433 7.433 0 0 1-9.314-4.874 7.433 7.433 0 0 1 4.873-9.315 7.433 7.433 0 0 1 9.315 4.873l-7.094 2.221z" fill="#00f"/><path d="M65.798 34.825a10.932 10.932 0 0 1-7.169 13.697 10.932 10.932 0 0 1-13.697-7.168 10.932 10.932 0 0 1 7.167-13.698 10.932 10.932 0 0 1 13.698 7.165l-10.432 3.267z" fill="#fff"/><path d="M60.115 37.642a7.433 7.433 0 0 1-4.875 9.314 7.433 7.433 0 0 1-9.314-4.874 7.433 7.433 0 0 1 4.873-9.315 7.433 7.433 0 0 1 9.315 4.873L53.02 39.86z" fill="#00f"/></svg>