<?xml version="1.0" encoding="UTF-8" standalone="no"?>
<!-- Created with Inkscape (http://www.inkscape.org/) -->

<svg
   width="100"
   height="100"
   viewBox="0 0 100 100"
   version="1.1"
   id="svg5"
   inkscape:version="1.2 (dc2aeda, 2022-05-15)"
   sodipodi:docname="ghost_scared_left_alternate.svg"
   xmlns:inkscape="http://www.inkscape.org/namespaces/inkscape"
   xmlns:sodipodi="http://sodipodi.sourceforge.net/DTD/sodipodi-0.dtd"
   xmlns="http://www.w3.org/2000/svg"
   xmlns:svg="http://www.w3.org/2000/svg">
  <sodipodi:namedview
     id="namedview7"
     pagecolor="#ffffff"
     bordercolor="#000000"
     borderopacity="0.25"
     inkscape:showpageshadow="2"
     inkscape:pageopacity="0.0"
     inkscape:pagecheckerboard="0"
     inkscape:deskcolor="#d1d1d1"
     inkscape:document-units="px"
     showgrid="true"
     inkscape:zoom="5.5731762"
     inkscape:cx="45.844594"
     inkscape:cy="54.99557"
     inkscape:window-width="1920"
     inkscape:window-height="1016"
     inkscape:window-x="0"
     inkscape:window-y="0"
     inkscape:window-maximized="1"
     inkscape:current-layer="layer1">
    <inkscape:grid
       type="xygrid"
       id="grid2865" />
  </sodipodi:namedview>
  <defs
     id="defs2">
    <inkscape:perspective
       sodipodi:type="inkscape:persp3d"
       inkscape:vp_x="0 : 50 : 1"
       inkscape:vp_y="0 : 1000 : 0"
       inkscape:vp_z="100 : 50 : 1"
       inkscape:persp3d-origin="50 : 33.333333 : 1"
       id="perspective5340" />
  </defs>
  <g
     inkscape:label="Layer 1"
     inkscape:groupmode="layer"
     id="layer1">
    <path
       id="path13817"
       style="fill:#110485;fill-opacity:1;stroke-width:10"
       d="m 88.15059,38.241912 c 1.767402,5.650724 1.513313,11.354806 1.515831,16.912134 0.0069,15.133555 2.336145,24.776064 -0.602871,33.38026 -0.492324,1.441316 -12.824316,6.10723 -14.745707,1.807013 -2.352881,-5.265926 1.744647,-14.292443 -1.792357,-15.27879 -2.973034,-0.829075 -5.082015,0.256335 -5.551857,2.725521 -1.023113,5.376824 -0.473105,10.07182 -2.344512,12.879246 -1.957218,2.936158 -7.698693,1.388176 -9.612042,-0.290132 -2.506845,-2.198897 -0.907763,-10.094436 -2.248031,-14.43905 -1.124196,-3.644195 -8.84018,-4.027361 -10.422441,-1.056194 -0.47283,0.887879 -0.822603,11.248306 -3.44686,14.709226 -2.118493,2.793911 -8.688375,2.742875 -10.346199,-0.30215 -2.447128,-4.494787 -0.651941,-13.579295 -2.994391,-14.467312 -3.13367,-1.187966 2.327933,-0.906979 -5.401606,0.07802 -3.237626,0.412581 -3.166457,11.71097 -4.991982,14.26218 -0.860913,1.203144 -2.114661,2.527702 -4.176326,-3.234226 C 9.9983419,83.158306 10.528036,56.442006 10.279775,53.627516 8.6674062,35.348351 19.89767,17.771464 38.127833,12.0641 46.669214,9.3900281 55.434158,9.7326425 63.274037,12.49111 74.743495,16.526648 84.233072,25.732745 88.146273,38.228118 L 50.05386,50.157593 Z"
       sodipodi:nodetypes="cssssssssssssssssssccc" />
    <path
       style="fill:#ffff64;fill-opacity:1;stroke-width:10"
       id="path14682-9"
       sodipodi:type="arc"
       sodipodi:cx="53.453583"
       sodipodi:cy="37.440784"
       sodipodi:rx="10.931968"
       sodipodi:ry="10.931968"
       sodipodi:start="5.9800505"
       sodipodi:end="5.9796884"
       sodipodi:arc-type="slice"
       d="m 63.887112,34.177444 a 10.931968,10.931968 0 0 1 -7.169244,13.696574 10.931968,10.931968 0 0 1 -13.697223,-7.168004 10.931968,10.931968 0 0 1 7.166764,-13.697872 10.931968,10.931968 0 0 1 13.69852,7.165524 l -10.432346,3.267118 z" />
    <path
       style="fill:#ffff64;fill-opacity:1;stroke-width:10"
       id="path14682-7"
       sodipodi:type="arc"
       sodipodi:cx="28.834406"
       sodipodi:cy="37.113461"
       sodipodi:rx="10.931968"
       sodipodi:ry="10.931968"
       sodipodi:start="5.9800505"
       sodipodi:end="5.9796884"
       sodipodi:arc-type="slice"
       d="M 39.267935,33.85012 A 10.931968,10.931968 0 0 1 32.098691,47.546694 10.931968,10.931968 0 0 1 18.401468,40.37869 10.931968,10.931968 0 0 1 25.568232,26.680818 10.931968,10.931968 0 0 1 39.266753,33.846342 l -10.432347,3.267119 z" />
    <path
       style="fill:#000000;fill-opacity:1;stroke-width:8.75852"
       id="path25750"
       sodipodi:type="arc"
       sodipodi:cx="37.961197"
       sodipodi:cy="59.730156"
       sodipodi:rx="18.031754"
       sodipodi:ry="4.353302"
       sodipodi:start="5.9800505"
       sodipodi:end="5.9796884"
       sodipodi:arc-type="slice"
       d="M 55.1708,58.430636 A 18.031754,4.353302 0 0 1 43.345477,63.884853 18.031754,4.353302 0 0 1 20.752569,61.030428 18.031754,4.353302 0 0 1 32.573801,55.575694 18.031754,4.353302 0 0 1 55.16885,58.429132 l -17.207653,1.301024 z" />
  </g>
</svg>
