<svg width="100" height="100" xmlns="http://www.w3.org/2000/svg"><path d="M88.15 38.242c1.768 5.65 1.514 11.355 1.516 16.912.007 15.134 2.337 24.776-.602 33.38-.493 1.442-2.95 6.386-4.87 2.086-2.353-5.266 2.429-16.701-1.108-17.688-2.973-.829-7.071-2.168-7.541.3-1.023 5.378.588 13.913-1.283 16.72-1.958 2.937-6.166 1.998-8.08.32-2.506-2.2-.914-10.233-2.254-14.578-1.124-3.644-8.283-5.553-9.865-2.582-.473.888-1.593 12.68-4.217 16.141-2.119 2.794-6.389 4.108-8.047 1.063-2.447-4.495-1.558-14.94-3.9-15.828-3.134-1.188-1.513-2.322-8.847-.48-3.165.795-5.193 12.014-7.018 14.565-.861 1.203-8.983 3.117-11.045-2.645-.99-2.77-.461-29.486-.71-32.3-1.612-18.28 9.619-35.857 27.849-41.564a39.74 39.74 0 0 1 25.146.427c11.47 4.036 20.96 13.242 24.872 25.737l-38.092 11.93z" fill="#110485"/></svg>