<svg width="100" height="100" xmlns="http://www.w3.org/2000/svg"><path d="M88.15 38.242c1.768 5.65 1.514 11.355 1.516 16.912.007 15.134 2.337 24.776-.602 33.38-.493 1.442-3.331 5.866-5.252 1.566-2.353-5.266 1.161-15.938-2.376-16.924-2.973-.83-5.248-1.694-5.718.775-1.023 5.377-.609 13.194-2.48 16.001-1.958 2.937-5.126 2.101-7.04.423-2.506-2.199-2.334-11.19-3.675-15.534-1.124-3.644-8.429-4.069-10.011-1.097-.473.888.732 12.528-1.892 15.989-2.119 2.794-8.52 3.113-10.178.068-2.447-4.495-1.083-14.384-3.426-15.272-3.134-1.188-1.271-1.53-8.605.313-3.166.795-2.956 12.256-4.781 14.808-.861 1.203-10.58 2.04-12.64-3.722-.992-2.77-.462-29.486-.71-32.3-1.613-18.28 9.618-35.857 27.848-41.564a39.74 39.74 0 0 1 25.146.427c11.47 4.036 20.96 13.242 24.872 25.737l-38.092 11.93z" fill="#110485"/><path d="M82.218 34.075a10.932 10.932 0 0 1-7.17 13.697 10.932 10.932 0 0 1-13.697-7.168 10.932 10.932 0 0 1 7.167-13.698 10.932 10.932 0 0 1 13.699 7.165l-10.433 3.267zM56.613 34.153a10.932 10.932 0 0 1-7.17 13.696 10.932 10.932 0 0 1-13.696-7.168 10.932 10.932 0 0 1 7.166-13.697 10.932 10.932 0 0 1 13.699 7.165L46.18 37.416z" fill="#ffff64"/><path d="M76.795 58.548a18.032 4.353 0 0 1-11.825 5.454 18.032 4.353 0 0 1-22.593-2.855 18.032 4.353 0 0 1 11.821-5.454 18.032 4.353 0 0 1 22.595 2.853l-17.208 1.301z"/></svg>