<svg width="100" height="100" xmlns="http://www.w3.org/2000/svg"><path d="M88.15 38.242c1.768 5.65 1.514 11.355 1.516 16.912.007 15.134 2.337 24.776-.602 33.38-.493 1.442-12.825 6.108-14.746 1.807-2.353-5.266 1.744-14.292-1.793-15.278-2.973-.83-5.082.256-5.551 2.725-1.023 5.377-.473 10.072-2.345 12.88-1.957 2.935-7.699 1.387-9.612-.29-2.507-2.2-.908-10.095-2.248-14.44-1.124-3.644-8.84-4.027-10.422-1.056-.473.888-.823 11.248-3.447 14.71-2.119 2.793-8.689 2.742-10.346-.303-2.448-4.495-.652-13.58-2.995-14.467-3.134-1.188 2.328-.907-5.401.078-3.238.412-3.167 11.71-4.992 14.262-.861 1.203-2.115 2.528-4.177-3.234-.99-2.77-.461-29.486-.71-32.3-1.612-18.28 9.619-35.857 27.849-41.564a39.74 39.74 0 0 1 25.146.427c11.47 4.036 20.96 13.242 24.872 25.737l-38.092 11.93z" fill="#110485"/><path d="M63.887 34.177a10.932 10.932 0 0 1-7.17 13.697 10.932 10.932 0 0 1-13.696-7.168 10.932 10.932 0 0 1 7.166-13.698 10.932 10.932 0 0 1 13.699 7.166L53.454 37.44zM39.268 33.85a10.932 10.932 0 0 1-7.17 13.697 10.932 10.932 0 0 1-13.697-7.168 10.932 10.932 0 0 1 7.167-13.698 10.932 10.932 0 0 1 13.699 7.165l-10.433 3.267z" fill="#ffff64"/><path d="M55.17 58.43a18.032 4.353 0 0 1-11.825 5.455 18.032 4.353 0 0 1-22.592-2.855 18.032 4.353 0 0 1 11.82-5.454 18.032 4.353 0 0 1 22.596 2.853L37.96 59.73z"/></svg>