<svg width="100" height="100" xmlns="http://www.w3.org/2000/svg"><path d="M88.15 38.242c1.768 5.65 1.514 11.355 1.516 16.912.007 15.134 2.337 24.776-.602 33.38-.493 1.442-9.71 6.098-11.631 1.798-2.353-5.266 1.516-15.517-2.021-16.504-2.973-.829-5.409-.831-5.879 1.638-1.023 5.377.4 11.798-1.472 14.606-1.957 2.936-7.34 2.314-9.253.635-2.507-2.199-1.604-11.804-2.944-16.148-1.124-3.644-4.18-3.97-5.762-.998-.473.888.05 12.225-2.574 15.686-2.119 2.794-3.4 2.63-5.057-.416-2.447-4.494-1.406-13.447-3.748-14.335-3.134-1.188-4.203-2.214-11.538-.372-3.165.795-1.98 12.36-3.806 14.912-.861 1.203-10.328 2.654-12.39-3.108-.99-2.77-.461-29.486-.71-32.3-1.612-18.28 9.619-35.857 27.849-41.564a39.74 39.74 0 0 1 25.146.427c11.47 4.036 20.96 13.242 24.872 25.737l-38.092 11.93z" fill="#110485"/><path d="M74.709 32.649a10.932 10.932 0 0 1-7.17 13.696 10.932 10.932 0 0 1-13.696-7.168 10.932 10.932 0 0 1 7.166-13.698 10.932 10.932 0 0 1 13.699 7.166l-10.432 3.267zM46.451 33.345a10.932 10.932 0 0 1-7.169 13.697 10.932 10.932 0 0 1-13.697-7.168 10.932 10.932 0 0 1 7.167-13.698 10.932 10.932 0 0 1 13.698 7.166l-10.432 3.267z" fill="#ffff64"/><path d="M68.14 58.846A18.032 4.353 0 0 1 56.314 64.3a18.032 4.353 0 0 1-22.593-2.854 18.032 4.353 0 0 1 11.822-5.455 18.032 4.353 0 0 1 22.595 2.854l-17.208 1.3z"/></svg>