<svg width="100" height="100" xmlns="http://www.w3.org/2000/svg"><path d="M88.15 38.242c1.768 5.65 1.514 11.355 1.516 16.912.007 15.134 2.337 24.776-.602 33.38-.493 1.442-2.868 4.664-4.79.363-2.352-5.265-.778-12.744-4.315-13.73-2.973-.83-5.542-2.718-6.012-.248-1.023 5.376 1.74 12.409-.13 15.216-1.958 2.936-4.945 1.108-6.859-.57-2.507-2.2-2.769-10.084-4.11-14.429-1.123-3.644-10.406-4.464-12.133-1.575-1.19 1.99 1.141 11.78-1.483 15.24-2.119 2.795-7.204 3.149-8.862.104-2.447-4.495-2.077-10.604-5.542-13.277-3.023-2.332.823-1.227-6.511-.462-3.246.339-8.379 11.014-10.204 13.566-.861 1.203-5.062 2.958-7.124-2.804-.99-2.77-.461-29.486-.71-32.3-1.612-18.28 9.619-35.857 27.849-41.564a39.74 39.74 0 0 1 25.146.427c11.47 4.036 20.96 13.242 24.872 25.737l-38.092 11.93z" fill="#d40000"/></svg>