<svg width="100" height="100" xmlns="http://www.w3.org/2000/svg"><path d="M88.15 38.242c1.768 5.65 1.514 11.355 1.516 16.912.007 15.134 2.337 24.776-.602 33.38-.493 1.442-9.761 5.131-11.683.831-2.352-5.266-3.41-16.254-6.947-17.24-2.973-.83-5.641 2.143-6.111 4.612-1.023 5.377-.234 9.673-2.105 12.48-1.957 2.936-8.88 1.916-10.794.238-2.507-2.2-2.172-9.433-3.512-13.778-1.124-3.644-7.51-1.317-10.345.297-.874.497 1.44 10.469-1.183 13.93-2.119 2.794-5.184 2.544-6.842-.5-2.447-4.496-1.413-13.052-3.755-13.94-3.134-1.188 3.976-.546-3.658-.448-3.263.042-1.936 12.448-3.762 14.999-.86 1.203-5.316 1.675-7.378-4.087-.99-2.77-.461-29.486-.71-32.3-1.612-18.28 9.619-35.857 27.849-41.564a39.74 39.74 0 0 1 25.146.427c11.47 4.036 20.96 13.242 24.872 25.737l-38.092 11.93z" fill="#d40000"/><path d="M54.676 35.17a10.932 10.932 0 0 1-7.17 13.696 10.932 10.932 0 0 1-13.697-7.168A10.932 10.932 0 0 1 40.976 28a10.932 10.932 0 0 1 13.699 7.165l-10.433 3.268z" fill="#fff"/><path d="M53.804 38.045a7.433 7.433 0 0 1-4.875 9.313 7.433 7.433 0 0 1-9.314-4.874 7.433 7.433 0 0 1 4.873-9.314 7.433 7.433 0 0 1 9.315 4.872l-7.094 2.222z" fill="#00f"/><path d="M81.619 35.396a10.932 10.932 0 0 1-7.17 13.697 10.932 10.932 0 0 1-13.697-7.168 10.932 10.932 0 0 1 7.167-13.698 10.932 10.932 0 0 1 13.698 7.166L71.185 38.66z" fill="#fff"/><path d="M80.746 38.272a7.433 7.433 0 0 1-4.875 9.313 7.433 7.433 0 0 1-9.313-4.874 7.433 7.433 0 0 1 4.873-9.314 7.433 7.433 0 0 1 9.315 4.872l-7.094 2.222z" fill="#00f"/></svg>