<svg width="100" height="100" xmlns="http://www.w3.org/2000/svg"><path d="M88.15 38.242c1.768 5.65 1.514 11.355 1.516 16.912.007 15.134 2.337 24.776-.602 33.38-.493 1.442-2.258 5.707-4.18 1.407-2.352-5.266.382-14.38-3.155-15.366-2.973-.83-5.864-2.42-6.334.05-1.023 5.376 1.779 13.13-.093 15.937-1.957 2.936-6.209 1.737-8.122.058-2.507-2.199-1.605-11.643-2.945-15.988-1.124-3.644-7.391-3.016-8.974-.045-.472.888-1.098 11.695-3.723 15.156-2.118 2.794-5.483 3.496-7.14.45-2.448-4.494-2.318-12.652-4.66-13.54-3.134-1.188-1.756-3.517-9.09-1.675-3.166.795-4.233 12.268-6.059 14.82-.86 1.203-11.538 1.892-13.6-3.87-.99-2.77-.461-29.486-.71-32.3-1.612-18.28 9.619-35.857 27.849-41.564a39.74 39.74 0 0 1 25.146.427c11.47 4.036 20.96 13.242 24.872 25.737l-38.092 11.93z" fill="#ff2df8"/><path d="M38.26 35.805a10.932 10.932 0 0 1-7.169 13.697 10.932 10.932 0 0 1-13.697-7.168 10.932 10.932 0 0 1 7.167-13.698A10.932 10.932 0 0 1 38.26 35.8l-10.433 3.267z" fill="#fff"/><path d="M32.577 38.622a7.433 7.433 0 0 1-4.875 9.313 7.433 7.433 0 0 1-9.314-4.874 7.433 7.433 0 0 1 4.873-9.314 7.433 7.433 0 0 1 9.315 4.873l-7.094 2.221z" fill="#00f"/><path d="M64.723 36.037a10.932 10.932 0 0 1-7.17 13.697 10.932 10.932 0 0 1-13.697-7.169 10.932 10.932 0 0 1 7.167-13.697 10.932 10.932 0 0 1 13.698 7.165L54.29 39.3z" fill="#fff"/><path d="M59.039 38.854a7.433 7.433 0 0 1-4.875 9.313 7.433 7.433 0 0 1-9.314-4.874 7.433 7.433 0 0 1 4.873-9.314 7.433 7.433 0 0 1 9.315 4.873l-7.094 2.221z" fill="#00f"/></svg>