<svg width="100" height="100" xmlns="http://www.w3.org/2000/svg"><path d="M88.15 38.242c1.768 5.65 1.514 11.355 1.516 16.912.007 15.134 2.337 24.776-.602 33.38-.493 1.442-6.265 6.043-8.186 1.743-2.353-5.266 2.069-14.54-1.468-15.527-2.973-.83-6.36-1.216-6.83 1.254-1.023 5.376-.71 11.14-2.582 13.948-1.957 2.937-1.953 1.762-3.867.084-2.507-2.2-1.81-9.605-3.15-13.95-1.125-3.643-7.952-3.56-9.534-.588-.473.888-1.02 11.063-3.645 14.523-2.118 2.794-2.663 3.062-4.321.017-2.447-4.495-3.765-13.84-6.108-14.728-3.133-1.188-3.243-2.502-10.578-.66-3.165.795-2.366 12.411-4.192 14.963-.86 1.203-11.552 2.077-13.614-3.685-.99-2.77-.461-29.486-.71-32.3-1.612-18.28 9.619-35.857 27.849-41.564a39.74 39.74 0 0 1 25.146.427c11.47 4.036 20.96 13.242 24.872 25.737l-38.092 11.93z" fill="#ff2df8"/></svg>