<svg width="100" height="100" xmlns="http://www.w3.org/2000/svg"><path d="M88.15 38.242c1.768 5.65 1.514 11.355 1.516 16.912.007 15.134 2.337 24.776-.602 33.38-.493 1.442-9.089 4.668-11.01.368-2.353-5.266-.008-11.51-3.545-12.496-2.973-.829-7.09-1.745-7.56.725-1.022 5.376-1.304 9.523-3.176 12.33-1.957 2.936-6.081 1.42-7.995-.258-2.507-2.199-3.361-7.996-4.702-12.341-1.124-3.644-10.943-5.2-12.525-2.23-.473.888 1.65 10.982-.974 14.443-2.118 2.794-6.28 3.309-7.938.264-2.448-4.495-3.303-14.501-5.646-15.39-3.133-1.187 2.21-.949-5.124.893-3.166.795-2.15 11.65-3.975 14.201-.86 1.204-1.843 2.647-3.905-3.115-.99-2.77-.461-29.486-.71-32.3-1.612-18.28 9.619-35.857 27.849-41.564a39.74 39.74 0 0 1 25.146.427c11.47 4.036 20.96 13.242 24.872 25.737l-38.092 11.93z" fill="#ff2df8"/><path d="M54.782 35.357a10.932 10.932 0 0 1-7.17 13.697 10.932 10.932 0 0 1-13.697-7.168 10.932 10.932 0 0 1 7.167-13.698 10.932 10.932 0 0 1 13.699 7.165L44.348 38.62z" fill="#fff"/><path d="M53.91 38.233a7.433 7.433 0 0 1-4.875 9.313 7.433 7.433 0 0 1-9.314-4.874 7.433 7.433 0 0 1 4.873-9.314 7.433 7.433 0 0 1 9.315 4.872l-7.094 2.222z" fill="#00f"/><path d="M81.726 35.149a10.932 10.932 0 0 1-7.169 13.696 10.932 10.932 0 0 1-13.697-7.168 10.932 10.932 0 0 1 7.167-13.697 10.932 10.932 0 0 1 13.698 7.165l-10.432 3.267z" fill="#fff"/><path d="M80.854 38.024a7.433 7.433 0 0 1-4.875 9.314 7.433 7.433 0 0 1-9.313-4.874 7.433 7.433 0 0 1 4.873-9.315 7.433 7.433 0 0 1 9.314 4.873l-7.093 2.221z" fill="#00f"/></svg>