<svg width="100" height="100" xmlns="http://www.w3.org/2000/svg"><path d="M88.15 38.242c1.768 5.65 1.514 11.355 1.516 16.912.007 15.134 2.337 24.776-.602 33.38-.493 1.442-5.869 7.003-7.79 2.702-2.353-5.266-2.212-16.285-5.75-17.272-2.972-.829-2.474-.43-2.944 2.04-1.023 5.376-.71 11.14-2.582 13.948-1.957 2.937-2.163 2.248-4.076.57-2.507-2.2-1.432-10.428-2.773-14.772-1.124-3.645-5.91-5.517-7.493-2.545-.473.888-3.775 14.031-6.4 17.492-2.118 2.794-3.9 2.247-5.559-.798-2.447-4.495-2.813-13.655-5.156-14.543-3.133-1.187-.945-2.121-8.28-.279-3.165.795-5.493 12.717-7.318 15.268-.861 1.203-9.892 1.345-11.954-4.417-.99-2.77-.461-29.486-.71-32.3-1.612-18.28 9.619-35.857 27.849-41.564a39.74 39.74 0 0 1 25.146.427c11.47 4.036 20.96 13.242 24.872 25.737l-38.092 11.93z" fill="#1789f8"/></svg>