<svg width="100" height="100" xmlns="http://www.w3.org/2000/svg"><path d="M88.15 38.242c1.768 5.65 1.514 11.355 1.516 16.912.007 15.134 2.337 24.776-.602 33.38-.493 1.442-8.893 5.353-10.815 1.053-2.353-5.266-2.793-12.199-6.33-13.185-2.973-.83-5.26-1.993-5.73.476-1.023 5.377.255 9.717-1.617 12.525-1.957 2.936-6.213 2.203-8.126.525-2.507-2.199-4.334-9.66-5.674-14.005-1.124-3.645-5.134-1.913-8.312-.802-7.481 2.616-1.542 10.228-4.167 13.689-2.118 2.794-7.481 3.798-9.139.753-2.447-4.495-1.337-13.368-3.68-14.256-3.133-1.188 2.915-.672-5.234-.288-3.26.154-2.32 11.433-4.145 13.984-.861 1.204-3.044 2.687-5.106-3.075-.99-2.77-.461-29.486-.71-32.3-1.612-18.28 9.619-35.857 27.849-41.564a39.74 39.74 0 0 1 25.146.427c11.47 4.036 20.96 13.242 24.872 25.737l-38.092 11.93z" fill="#1789f8"/><path d="M54.702 34.541a10.932 10.932 0 0 1-7.17 13.697 10.932 10.932 0 0 1-13.697-7.168 10.932 10.932 0 0 1 7.167-13.698 10.932 10.932 0 0 1 13.699 7.165l-10.433 3.268z" fill="#fff"/><path d="M53.83 37.417a7.433 7.433 0 0 1-4.875 9.313 7.433 7.433 0 0 1-9.314-4.874 7.433 7.433 0 0 1 4.873-9.314 7.433 7.433 0 0 1 9.315 4.872l-7.094 2.222z" fill="#00f"/><path d="M81.356 34.531a10.932 10.932 0 0 1-7.17 13.697A10.932 10.932 0 0 1 60.49 41.06a10.932 10.932 0 0 1 7.167-13.698 10.932 10.932 0 0 1 13.699 7.166l-10.433 3.267z" fill="#fff"/><path d="M80.483 37.407a7.433 7.433 0 0 1-4.874 9.313 7.433 7.433 0 0 1-9.314-4.874 7.433 7.433 0 0 1 4.873-9.314 7.433 7.433 0 0 1 9.315 4.872l-7.094 2.222z" fill="#00f"/></svg>