<svg width="100" height="100" xmlns="http://www.w3.org/2000/svg"><path d="M88.15 38.242c1.768 5.65 1.514 11.355 1.516 16.912.007 15.134 2.337 24.776-.602 33.38-.493 1.442-2.462 5.864-4.383 1.564-2.353-5.266.76-16.127-2.777-17.113-2.973-.829-8.854.55-9.324 3.019-1.023 5.376-.71 11.14-2.582 13.948-1.957 2.937-6.397 2.67-8.31.99-2.507-2.198 2.113-11.396.772-15.74-1.124-3.645-9.416-3.922-10.998-.95-.473.887-3.204 11.303-5.828 14.764-2.118 2.794-2.87 3.034-4.527-.01C38.66 84.51 40 77.058 37.658 76.17c-3.134-1.188-2.744-2.935-10.079-1.093-3.165.796-2.937 11.74-4.762 14.292-.861 1.203-9.766 2.32-11.828-3.442-.99-2.77-.461-29.486-.71-32.3-1.612-18.28 9.619-35.857 27.849-41.564a39.74 39.74 0 0 1 25.146.427c11.47 4.036 20.96 13.242 24.872 25.737l-38.092 11.93z" fill="#1789f8"/><path d="M39.14 34.769a10.932 10.932 0 0 1-7.17 13.697 10.932 10.932 0 0 1-13.697-7.168A10.932 10.932 0 0 1 25.44 27.6a10.932 10.932 0 0 1 13.698 7.165l-10.432 3.267z" fill="#fff"/><path d="M33.456 37.586A7.433 7.433 0 0 1 28.58 46.9a7.433 7.433 0 0 1-9.314-4.874 7.433 7.433 0 0 1 4.873-9.315 7.433 7.433 0 0 1 9.315 4.873l-7.094 2.221z" fill="#00f"/><path d="M65.798 34.825a10.932 10.932 0 0 1-7.169 13.697 10.932 10.932 0 0 1-13.697-7.168 10.932 10.932 0 0 1 7.167-13.698 10.932 10.932 0 0 1 13.698 7.165l-10.432 3.267z" fill="#fff"/><path d="M60.115 37.642a7.433 7.433 0 0 1-4.875 9.314 7.433 7.433 0 0 1-9.314-4.874 7.433 7.433 0 0 1 4.873-9.315 7.433 7.433 0 0 1 9.315 4.873L53.02 39.86z" fill="#00f"/></svg>