<svg width="100" height="100" xmlns="http://www.w3.org/2000/svg"><path d="M40.2 82.688l.259-13.854-.09-30.845 14.53-.122-.204 9.779 5.652 2.674-.128 2.433-5.36 2.438 5.293 2.927.215 2.733-5.178 2.567.2 6.4 4.22 1.672.092 2.273-4.239 3.947-.127 5.118-7.38 10.392z" fill="#b3b3b3"/><path d="M46.314 38.132l3.454-.267.4 11.047 2.983 2.431-3.225 2.368-.04 4.234 3.934 2.012-3.97 1.95-.09 9.904 4.045 1.599-4.083 2.468-.067 7.37-1.443 3.673-1.89-3.636z" fill="#e6e6e6"/><path d="M62.742 20.468A15.778 16.245 0 0 1 52.394 40.82a15.778 16.245 0 0 1-19.77-10.652A15.778 16.245 0 0 1 42.97 9.814a15.778 16.245 0 0 1 19.77 10.648l-15.056 4.855z" fill="#4970ff"/></svg>