<?xml version="1.0" encoding="UTF-8" standalone="no"?>
<!-- Created with Inkscape (http://www.inkscape.org/) -->

<svg
   width="100"
   height="100"
   viewBox="0 0 100 100"
   version="1.1"
   id="svg5"
   inkscape:version="1.2 (dc2aeda, 2022-05-15)"
   sodipodi:docname="bonusCherry.svg"
   xmlns:inkscape="http://www.inkscape.org/namespaces/inkscape"
   xmlns:sodipodi="http://sodipodi.sourceforge.net/DTD/sodipodi-0.dtd"
   xmlns="http://www.w3.org/2000/svg"
   xmlns:svg="http://www.w3.org/2000/svg">
  <sodipodi:namedview
     id="namedview7"
     pagecolor="#ffffff"
     bordercolor="#000000"
     borderopacity="0.25"
     inkscape:showpageshadow="2"
     inkscape:pageopacity="0.0"
     inkscape:pagecheckerboard="0"
     inkscape:deskcolor="#d1d1d1"
     inkscape:document-units="px"
     showgrid="true"
     inkscape:zoom="5.5731762"
     inkscape:cx="6.010935"
     inkscape:cy="50.150935"
     inkscape:window-width="1920"
     inkscape:window-height="1016"
     inkscape:window-x="0"
     inkscape:window-y="0"
     inkscape:window-maximized="1"
     inkscape:current-layer="layer1">
    <inkscape:grid
       type="xygrid"
       id="grid9" />
  </sodipodi:namedview>
  <defs
     id="defs2" />
  <g
     inkscape:label="Layer 1"
     inkscape:groupmode="layer"
     id="layer1">
    <rect
       style="fill:#000000;fill-opacity:0;stroke:none;stroke-width:10;stroke-opacity:0.975222"
       id="rect65"
       width="39.528065"
       height="31.293869"
       x="27.1985"
       y="18.866224" />
    <path
       style="fill:#ff0000;stroke:#000000;stroke-width:0"
       id="path2427-3-7-3"
       sodipodi:type="arc"
       sodipodi:cx="33.151962"
       sodipodi:cy="76.054909"
       sodipodi:rx="16.091595"
       sodipodi:ry="16.568899"
       sodipodi:start="5.9800505"
       sodipodi:end="5.9796884"
       sodipodi:arc-type="slice"
       d="M 48.509867,71.108868 A 16.091595,16.568899 0 0 1 37.956912,91.867908 16.091595,16.568899 0 0 1 17.794927,81.003813 16.091595,16.568899 0 0 1 28.344233,60.242806 16.091595,16.568899 0 0 1 48.508127,71.103142 l -15.356165,4.951767 z" />
    <path
       style="fill:#ffffff;stroke:#000000;stroke-width:0;stroke-dasharray:none"
       d="m 20.281638,84.458309 c 0,0 10.112842,10.258066 16.411426,5.88844 6.298582,-4.369625 0.497213,-7.119248 -1.951219,-4.718458 -2.44843,2.40079 -4.098238,2.667376 -7.722921,0.226026 -3.624683,-2.441349 0.441069,0.08542 -3.67944,-2.492903 -4.120509,-2.578325 -4.094518,-2.553854 -4.094518,-2.553854 z"
       id="path3099" />
    <path
       style="fill:#ff0000;stroke:#000000;stroke-width:0"
       id="path2427-3-7-3-0"
       sodipodi:type="arc"
       sodipodi:cx="66.999916"
       sodipodi:cy="77.10907"
       sodipodi:rx="16.091595"
       sodipodi:ry="16.568899"
       sodipodi:start="5.9800505"
       sodipodi:end="5.9796884"
       sodipodi:arc-type="slice"
       d="M 82.357821,72.163029 A 16.091595,16.568899 0 0 1 71.804865,92.922069 16.091595,16.568899 0 0 1 51.642881,82.057974 16.091595,16.568899 0 0 1 62.192186,61.296967 16.091595,16.568899 0 0 1 82.356081,72.157303 L 66.999916,77.10907 Z" />
    <path
       style="fill:#ffffff;stroke:#000000;stroke-width:0;stroke-dasharray:none"
       d="m 55.167023,85.396696 c 0,0 10.84171,8.871211 17.594255,5.092347 6.752543,-3.778873 0.533049,-6.156758 -2.09185,-4.080546 -2.624897,2.076217 -4.393612,2.30676 -8.279539,0.195473 -3.885926,-2.111293 0.472858,0.07387 -3.94463,-2.155873 -4.417488,-2.229749 -4.389624,-2.208584 -4.389624,-2.208584 z"
       id="path3099-9" />
    <path
       style="fill:#784421;stroke:#000000;stroke-width:0"
       d="m 30.738755,60.800113 c 0.07803,-0.269847 0.133806,-0.547154 0.234102,-0.809542 0.25411,-0.664789 0.773327,-1.311604 1.03383,-2.00528 0.203951,-0.543087 0.332224,-1.107336 0.548105,-1.646419 0.07555,-0.188649 -0.03263,-0.553127 0.06098,-0.710014 0.270773,-0.453795 0.6536,-0.968712 0.812345,-1.477501 0.922466,-2.956566 1.779728,-5.972187 2.986543,-8.838373 0.563494,-1.338299 1.359912,-2.669748 2.066259,-3.941172 0.157727,-0.283908 0.401898,-0.483609 0.546003,-0.786412 0.493301,-1.036557 0.904012,-2.104699 1.462782,-3.109201 0.898921,-1.615991 2.164887,-3.044039 3.287931,-4.503996 0.246498,-0.320447 0.374805,-0.757796 0.609785,-1.096911 0.490393,-0.707719 0.967248,-1.42564 1.462782,-2.133546 0.65969,-0.942414 1.421967,-1.7939 2.133546,-2.682352 0.646123,-0.806726 1.143831,-1.716061 1.828653,-2.498715 0.256359,-0.292982 0.586999,-0.530872 0.813046,-0.816551 0.719612,-0.909449 0.959213,-2.195348 1.58544,-3.169478 0.684762,-1.065185 1.554029,-1.968585 2.310173,-2.975329 0.216085,-0.287699 0.32967,-0.632668 0.548105,-0.913976 0.345259,-0.444634 0.843341,-0.814219 1.158591,-1.279847 0.853045,-1.259957 2.061718,-2.979439 3.368535,-3.894211 1.094626,-0.766238 2.850373,-1.819366 4.117098,-2.19873 0.164053,-0.04913 0.262411,0.01418 0.43526,-0.05747 0.214395,-0.08888 0.305442,-0.373429 0.534087,-0.424045 0.0628,-0.0139 0.292466,0.04365 0.352554,0 1.470802,-1.068413 5.786273,-3.067154 7.597076,-2.350124 0.227645,0.09014 0.583031,0.517344 0.803935,0.695294 0.108372,0.0873 0.220366,0.08604 0.338535,0.119154 0.418466,0.117251 0.941934,0.926023 1.184525,1.223073 0.221602,0.27135 0.527093,0.474606 0.747161,0.747162 0.11133,0.137882 -8.36e-4,0.224525 0.06098,0.358862 0.14798,0.321595 0.684305,0.662586 0.759076,0.999486 0.121399,0.54699 0.439629,1.04349 0.545302,1.62469 0.145897,0.802432 0.469284,1.635354 0.544601,2.46297 0.02556,0.280844 -0.03371,0.571751 0,0.851596 0.136928,1.136668 0.285488,2.272699 0.180132,3.431616 -0.08931,0.982447 -0.531471,1.93061 -0.606281,2.903135 -0.149293,1.940817 -0.153884,3.916519 -0.36587,5.851831 -0.07454,0.680505 -0.26453,1.371426 -0.30279,2.06766 -0.0251,0.456751 0.09027,1.012635 0,1.463484 -0.349816,1.747072 -0.712645,3.52846 -0.975656,5.303024 -0.0786,0.530306 0.0048,1.060744 -0.06098,1.584739 -0.150913,1.201977 -0.671294,2.216252 -1.150881,3.304052 -0.337286,0.765032 -0.613661,1.707563 -0.912574,2.519742 -0.221982,0.603149 -0.466426,1.21564 -0.669362,1.824448 -0.114899,0.344697 0.02999,0.925182 -0.121957,1.216065 -0.299187,0.572763 -0.687248,1.181913 -0.848792,1.813233 -0.603218,2.357406 -1.159932,4.796308 -1.519555,7.237514 -0.08499,0.576957 -0.483728,1.084555 -0.545302,1.637307 -0.05266,0.472731 -0.259378,0.877357 -0.299986,1.364656 -0.04592,0.55108 0.10936,1.249607 -0.115649,1.754357 -0.07938,0.178074 3.820133,3.195169 1.812532,1.471894 -0.164664,-0.141344 -0.884256,1.688449 -1.032428,1.869306 -0.08133,0.09927 -2.368789,-0.361014 -4.293024,0.05327 -1.900569,0.409189 -1.887361,-1.112446 -2.12934,-0.714219 -0.547766,0.901462 -0.209346,-1.259517 -0.402318,-1.259517 -0.09586,0 -0.329268,0.04827 -0.410729,0 -0.0155,-0.0092 0,-1.596718 0,-2.191019 0,-0.653785 0.414688,-1.359248 0.466801,-2.03612 0.02188,-0.284206 -0.04774,-0.626288 0,-0.913275 0.04287,-0.257715 0.272107,-0.402759 0.327321,-0.656746 0.340818,-1.567759 0.298585,-3.276974 0.298585,-4.900706 0,-1.107488 0.27898,-2.102779 0.446474,-3.196814 0.263747,-1.72274 -0.160969,-3.746482 0.529181,-5.351386 0.0978,-0.227431 0.334122,-0.393575 0.420541,-0.651839 0.574424,-1.71667 1.150099,-3.506868 1.415121,-5.360498 0.135897,-0.950494 0.125711,-1.920341 0.243914,-2.865287 0.132215,-1.056963 0.357739,-1.992092 0.423345,-3.080464 0.01598,-0.265093 0.104197,-3.192804 0.242512,-3.519929 0.07201,-0.170315 0.340945,-0.423802 0.421943,-0.665857 0.224248,-0.670147 0.542197,-1.358447 0.669361,-2.057848 0.03562,-0.195891 -0.07807,-0.500232 0,-0.685482 0.151449,-0.359356 0.295033,-0.752485 0.360965,-1.148078 0.159096,-0.954575 0.06098,-2.073101 0.06098,-3.051026 0,-0.530716 0.329514,-1.273743 -0.09322,-1.695482 -0.345127,-0.344315 -0.973952,-0.656683 -1.505537,-0.426148 -0.302737,0.131289 -0.57972,0.539427 -0.850895,0.728938 -1.249671,0.873333 -2.003261,2.046153 -2.925565,3.230457 -0.925195,1.188018 -1.963613,2.269691 -2.862483,3.468764 -1.572281,2.097386 -3.574722,3.85545 -5.352788,5.729172 -1.080515,1.138644 -2.091323,2.400372 -3.037009,3.646793 -0.119129,0.157014 -0.01014,0.277827 -0.06098,0.451381 -0.325606,1.111551 -0.980393,2.589084 -1.584739,3.596328 -0.225777,0.376294 -0.542754,0.618275 -0.792019,0.974954 -0.637433,0.912115 -1.428407,2.068434 -1.950611,3.048223 -0.413202,0.775275 -0.69255,1.632165 -1.15859,2.376758 -0.28337,0.45274 -0.644865,0.975033 -0.852998,1.463483 -0.05072,0.119032 0.05147,0.303958 0,0.422644 -0.242448,0.559056 -0.702659,1.013786 -1.030326,1.506239 -0.186535,0.280344 -0.248432,0.628962 -0.426849,0.914677 -0.803207,1.286241 -1.735561,2.60761 -2.402692,3.941872 -0.40712,0.81424 -1.457051,1.622216 -2.01229,2.386571 -0.642647,0.884683 -1.483531,1.822302 -1.914163,2.824635 -0.142991,0.332824 -0.486495,1.574996 -0.667959,1.75646 -0.257411,0.257411 -0.226235,-0.340748 -0.246017,-0.365871 -0.0057,-0.0072 0.602839,2.482141 0.569132,2.464372 -0.293444,-0.154726 -2.439021,-0.343942 -2.624877,-0.300687 -0.400303,0.09315 -2.028928,-0.264047 -2.399188,-0.09252 -0.343071,0.158916 -1.702844,-0.184873 -1.977941,-0.04976 -0.949953,0.466544 0.810728,-0.940288 -0.273352,-1.130555 z"
       id="path4851"
       sodipodi:nodetypes="sssssssssssssssssssssssscsssssssssssssssscssssssssssssssssssssssssssssssssssssssssssssssssssssccscsss" />
  </g>
</svg>
