<svg width="100" height="100" xmlns="http://www.w3.org/2000/svg"><path d="M49.132 39.895l16.172-.104 4.89-9.774 5.922 9.704-20.928 20.86-.347 29.285-10.152.172.169-29.664L23.95 40.068l5.808-10.077 4.9 9.457z" fill="#ffcf20"/><path d="M50.017 22.21L65.27 39.962 54.752 50.054l-9.314-.113-10.757-10.163z" fill="#d40000"/><path d="M24.023 40.114L45.008 60.58l-.276 9.648-4.757-5.115L15.42 49.456l-.41-35.005zM75.92 40.074L54.935 60.54l.277 9.648 4.756-5.115 24.555-15.657.41-35.005z" fill="#0000de"/><path fill="#faee1f" d="M52.816 60.484h1.287v28.59h-1.287z"/><path fill="#134aff" d="M83.04 21.503l1.073-1.038.07 27.666-1.074 1.037z"/><path fill="#134aff" d="M82.665 47.826l1.452.348-23.303 14.914-1.451-.349z"/><path fill="#faee1f" d="M71.412 41.513l2.11-.14L54.48 60.074l-2.11.14z"/><path fill="#ae0000" d="M49.864 32.116l7.11 6.983-6.857 6.983-7.11-6.983z"/></svg>