<svg width="100" height="100" xmlns="http://www.w3.org/2000/svg"><path d="M80.522 49.771c-1.216 12.056-11.263 21.893-19.444 28.747-3.235 2.71-3.522 3.16-7.563 2.96-3.847-.192-5.213-.28-9.968-3.168-8.97-5.45-17.094-13.082-19.988-24.53-2.046-8.098-4.828-20.404.78-25.465 8.728-7.88 19.351-4.69 26.148-5.602 8.798-1.18 20.204-7.396 25.913 2.618 1.48 2.594 3.388 9.425 4.28 12.957l.314 7.298z" fill="red"/><path d="M48.802 16.866l6-13.244 6.256 2.411-6.445 11.44 8.78.675 10.68 2.602c1.2.33 4.203 2.679 6.685 6.537 0 0-8.72-3.063-12.407-3.434l4.812 6.19-3.929-.498-9.68-4.212-1.025 3.031-5.229 7.158-4.444-10.833-8.143 14.484-2.076-8.586 1.28-7.16-14.708 5.171-4.597-1.642 12.622-7.238 9.94-2.072z" fill="green"/><path d="M35.587 51.22a1.73 3.059 0 0 1-1.135 3.832 1.73 3.059 0 0 1-2.167-2.006 1.73 3.059 0 0 1 1.134-3.833 1.73 3.059 0 0 1 2.167 2.005l-1.65.914zM45.76 42.516a1.73 3.059 0 0 1-1.134 3.832 1.73 3.059 0 0 1-2.167-2.005 1.73 3.059 0 0 1 1.134-3.833 1.73 3.059 0 0 1 2.168 2.005l-1.651.914zM36.709 39.464a1.73 3.059 0 0 1-1.135 3.833 1.73 3.059 0 0 1-2.167-2.006 1.73 3.059 0 0 1 1.134-3.832 1.73 3.059 0 0 1 2.167 2.004l-1.65.915zM27.3 41.32a1.73 3.059 0 0 1-1.135 3.833 1.73 3.059 0 0 1-2.167-2.006 1.73 3.059 0 0 1 1.134-3.832 1.73 3.059 0 0 1 2.168 2.004l-1.651.915zM31.434 31.347A1.73 3.059 0 0 1 30.3 35.18a1.73 3.059 0 0 1-2.167-2.006 1.73 3.059 0 0 1 1.134-3.833 1.73 3.059 0 0 1 2.167 2.005l-1.65.914zM52.426 38.183a1.73 3.059 0 0 1-1.135 3.833 1.73 3.059 0 0 1-2.167-2.006 1.73 3.059 0 0 1 1.134-3.833 1.73 3.059 0 0 1 2.168 2.005l-1.651.914zM38.545 62.587a1.73 3.059 0 0 1-1.134 3.833 1.73 3.059 0 0 1-2.168-2.006 1.73 3.059 0 0 1 1.134-3.833 1.73 3.059 0 0 1 2.168 2.005l-1.65.914zM46.073 55.947a1.73 3.059 0 0 1-1.135 3.832 1.73 3.059 0 0 1-2.167-2.005 1.73 3.059 0 0 1 1.134-3.833 1.73 3.059 0 0 1 2.168 2.005l-1.651.914zM50.799 69.838a1.73 3.059 0 0 1-1.135 3.832 1.73 3.059 0 0 1-2.167-2.005 1.73 3.059 0 0 1 1.134-3.833 1.73 3.059 0 0 1 2.168 2.005l-1.651.914zM56.795 58.877a1.73 3.059 0 0 1-1.134 3.832 1.73 3.059 0 0 1-2.168-2.006 1.73 3.059 0 0 1 1.134-3.832 1.73 3.059 0 0 1 2.168 2.005l-1.65.914zM61.226 70.33a1.73 3.059 0 0 1-1.134 3.833 1.73 3.059 0 0 1-2.168-2.006 1.73 3.059 0 0 1 1.134-3.832 1.73 3.059 0 0 1 2.168 2.005l-1.65.914zM68.958 60.705a1.73 3.059 0 0 1-1.135 3.833 1.73 3.059 0 0 1-2.167-2.006 1.73 3.059 0 0 1 1.134-3.833 1.73 3.059 0 0 1 2.168 2.005l-1.651.914zM76.904 49.908a1.73 3.059 0 0 1-1.134 3.832 1.73 3.059 0 0 1-2.168-2.005 1.73 3.059 0 0 1 1.134-3.833 1.73 3.059 0 0 1 2.168 2.005l-1.651.914zM66.212 48.63a1.73 3.059 0 0 1-1.134 3.833 1.73 3.059 0 0 1-2.167-2.005 1.73 3.059 0 0 1 1.134-3.833 1.73 3.059 0 0 1 2.167 2.005l-1.65.914zM55.33 47.92a1.73 3.059 0 0 1-1.134 3.832 1.73 3.059 0 0 1-2.168-2.006 1.73 3.059 0 0 1 1.134-3.832 1.73 3.059 0 0 1 2.168 2.004l-1.65.915zM61.975 38.806a1.73 3.059 0 0 1-1.134 3.832 1.73 3.059 0 0 1-2.167-2.006 1.73 3.059 0 0 1 1.134-3.832 1.73 3.059 0 0 1 2.167 2.005l-1.65.914zM74.846 40.871a1.73 3.059 0 0 1-1.134 3.832 1.73 3.059 0 0 1-2.168-2.005 1.73 3.059 0 0 1 1.134-3.833 1.73 3.059 0 0 1 2.168 2.005l-1.65.914zM69.104 33.28a1.73 3.059 0 0 1-1.134 3.832 1.73 3.059 0 0 1-2.167-2.006 1.73 3.059 0 0 1 1.134-3.832 1.73 3.059 0 0 1 2.167 2.005l-1.65.914z" fill="#ffad00"/></svg>