<svg width="100" height="100" xmlns="http://www.w3.org/2000/svg"><path d="M75.052 69.81l-20.546-4.757-14.462-.018-19.704 4.612 5.381-29.75 14.567-15.056 15.378-.01 14.956 15.194z" fill="#ebeb00"/><path d="M20.484 69.726l18.782-4.48 15.819-.11 19.776 4.556-14.888 5.769-24.655-.394z" fill="#dbc900"/><path fill="#666" d="M44.492 65.389h6.307v12.047h-6.307z"/><path d="M21.15 66.379l19.19-5.504 15.28.046 18.34 6.568 1.307 2.471-20.333-4.968-14.995.739-19.197 4.185z" fill="#e3a54a"/><path d="M61.467 37.58A9.315 2.64 70.644 0 1 63.7 49.166a9.315 2.64 70.644 0 1-5.147-4.666 9.315 2.64 70.644 0 1-2.235-11.587 9.315 2.64 70.644 0 1 5.146 4.664L60.01 41.04z" fill="#e3de4a"/><path d="M52.8 75.387a5.54 5.316 0 0 1-3.632 6.66 5.54 5.316 0 0 1-6.94-3.486 5.54 5.316 0 0 1 3.63-6.66 5.54 5.316 0 0 1 6.942 3.484l-5.286 1.589z" fill="#484537"/><path d="M40.321 25.065l2.128-7.821 2.313-2.497 4.86.145 2.887 1.484L55.867 25l-5.989.038-.01-4.767-4.644-.341-.523 4.965z" fill="#ebeb00"/></svg>