<?xml version="1.0" encoding="UTF-8" standalone="no"?>
<!-- Created with Inkscape (http://www.inkscape.org/) -->

<svg
   width="100"
   height="100"
   viewBox="0 0 100 100"
   version="1.1"
   id="svg5"
   inkscape:version="1.2 (dc2aeda, 2022-05-15)"
   sodipodi:docname="bonusApple.svg"
   xmlns:inkscape="http://www.inkscape.org/namespaces/inkscape"
   xmlns:sodipodi="http://sodipodi.sourceforge.net/DTD/sodipodi-0.dtd"
   xmlns="http://www.w3.org/2000/svg"
   xmlns:svg="http://www.w3.org/2000/svg">
  <sodipodi:namedview
     id="namedview7"
     pagecolor="#ffffff"
     bordercolor="#000000"
     borderopacity="0.25"
     inkscape:showpageshadow="2"
     inkscape:pageopacity="0.0"
     inkscape:pagecheckerboard="0"
     inkscape:deskcolor="#d1d1d1"
     inkscape:document-units="px"
     showgrid="true"
     inkscape:zoom="5.5731762"
     inkscape:cx="6.010935"
     inkscape:cy="50.150935"
     inkscape:window-width="1920"
     inkscape:window-height="1016"
     inkscape:window-x="0"
     inkscape:window-y="0"
     inkscape:window-maximized="1"
     inkscape:current-layer="layer1">
    <inkscape:grid
       type="xygrid"
       id="grid9" />
  </sodipodi:namedview>
  <defs
     id="defs2" />
  <g
     inkscape:label="Layer 1"
     inkscape:groupmode="layer"
     id="layer1">
    <path
       id="path9756"
       style="fill:#d40000;stroke:#000000;stroke-width:0"
       d="M 80.80339,46.851054 C 86.152201,63.624244 76.625979,81.47468 59.525283,86.722422 42.424587,91.970165 24.224234,82.628266 18.872328,65.856026 13.52042,49.083786 25.465171,15.896962 40.143073,25.98088 c 5.59801,3.845909 11.045136,3.817034 17.430657,-0.54041 9.004658,-6.144727 19.708891,10.38391 23.22615,21.399587 l -30.962899,9.510734 z"
       sodipodi:nodetypes="cssssccc" />
    <path
       style="fill:#008000;stroke:#000000;stroke-width:0"
       d="m 43.062714,27.870991 c -0.06565,-0.242979 -0.131302,-0.485958 -0.196953,-0.728938 0,-0.01472 0.0094,-0.0328 0,-0.04416 -0.292438,-0.3543 -0.855259,-0.712235 -1.203449,-1.14247 -1.234185,-1.524999 -2.802198,-2.999144 -3.723892,-4.842531 -0.09256,-0.185114 -0.314031,-0.352375 -0.363067,-0.543199 -0.152783,-0.594564 -0.525299,-1.156537 -0.667258,-1.792907 -0.03804,-0.1705 0.04819,-0.378838 0,-0.546704 -0.07999,-0.278639 -0.216959,-0.591594 -0.284567,-0.895052 -0.140143,-0.629033 -0.07751,-0.692043 -0.374281,-1.287556 -0.05889,-0.118178 -0.365871,-0.930393 -0.365871,-0.821458 0,0.04346 0,-0.08691 0,-0.130367 0,-0.179198 0,-0.358395 0,-0.537592 0,-0.520801 -0.01667,-0.936636 -0.121957,-1.462782 -0.273815,-1.368291 -0.523606,-2.693662 -0.670062,-4.0841559 -0.02853,-0.270869 -0.398445,-5.0260918 -0.182936,-5.2546619 0.196646,-0.2085632 3.211687,0.8635964 3.721089,1.279847 1.452193,1.1866407 2.508157,2.9586586 3.596328,4.4500259 1.887297,2.5865949 4.282588,4.6976229 4.690435,7.9846749 0.07631,0.615008 0.01322,1.428465 0.180132,2.019299 0.118968,0.421108 0.39032,0.98904 0.453484,1.493622 0.02792,0.223084 -5.1e-5,0.58569 0.108639,0.775898 0.158763,0.277834 0.274754,0.974543 0.274754,1.303678 0,0.04626 -0.03766,0.476404 0.04836,0.42755 0.747239,-0.424358 1.185191,-3.17107 1.370264,-4.09537 0.168052,-0.839296 0.7172,-1.702586 1.035933,-2.499416 0.412279,-1.030698 0.698479,-2.097797 1.15789,-3.1085 1.710434,-3.762956 5.221533,-7.0846242 8.863605,-8.9056603 1.036187,-0.5180934 2.757571,-1.7034521 3.90823,-0.749965 0.170957,0.1416631 0.504806,0.4132458 0.60628,0.6062801 0.334406,0.6361404 0.235002,2.2623883 0.05818,2.9690206 -0.15073,0.6023417 -0.459867,1.1680027 -0.609785,1.7676747 -0.344071,1.3762849 -1.743096,4.3949129 -2.554788,5.5294149 -0.661055,0.923958 -1.012042,2.40167 -1.645717,3.414094 -0.568974,0.90905 -1.595389,1.529738 -2.171394,2.420915 -0.774737,1.198649 -1.535478,2.410544 -2.366946,3.5746 -0.114955,0.160936 -0.317263,0.262469 -0.42685,0.426849 -0.179751,0.269627 -0.239763,0.726616 -0.362366,0.908369 -0.138605,0.205476 -0.380774,0.360873 -0.506752,0.567731 -0.0659,0.108205 -0.0025,0.287305 -0.05817,0.369375 -0.31278,0.460939 -0.987292,1.138764 -1.162095,1.834961 -5.1e-4,0.002 -0.518081,-0.01008 -0.941312,-0.09953 -0.688997,-0.145613 -1.512514,0.0868 -2.111817,0.317509 -0.390409,0.15029 -0.86676,0.334817 -1.279847,0.426849 -0.629286,0.140199 -5.341943,-0.08515 -5.50979,-0.359563 -0.166858,-0.272799 -0.135538,-0.625117 -0.211673,-0.935704 z"
       id="path10485" />
    <path
       style="fill:#ff2a2a;stroke:#000000;stroke-width:0"
       id="path11265"
       sodipodi:type="arc"
       sodipodi:cx="41.594948"
       sodipodi:cy="51.675758"
       sodipodi:rx="6.3899846"
       sodipodi:ry="1.7309046"
       sodipodi:start="5.9800505"
       sodipodi:end="5.9796884"
       sodipodi:arc-type="slice"
       d="m 47.693584,51.15906 a 6.3899846,1.7309046 0 0 1 -4.190587,2.168636 6.3899846,1.7309046 0 0 1 -8.00634,-1.13494 6.3899846,1.7309046 0 0 1 4.189138,-2.168842 6.3899846,1.7309046 0 0 1 8.007098,1.134548 l -6.097945,0.517296 z"
       transform="matrix(0.90698014,-0.42117339,0.38231815,0.92403075,0,0)" />
    <path
       style="fill:#ff2a2a;stroke:#000000;stroke-width:0"
       id="path11265-5"
       sodipodi:type="arc"
       sodipodi:cx="5.6638637"
       sodipodi:cy="101.14898"
       sodipodi:rx="13.307674"
       sodipodi:ry="2.6830525"
       sodipodi:start="5.9800505"
       sodipodi:end="5.9796884"
       sodipodi:arc-type="slice"
       d="m 18.36478,100.34805 a 13.307674,2.6830525 0 0 1 -8.7272455,3.36158 13.307674,2.6830525 0 0 1 -16.6738677,-1.75926 13.307674,2.6830525 0 0 1 8.7242267,-3.361893 13.307674,2.6830525 0 0 1 16.6754475,1.758643 l -12.6994773,0.80186 z"
       transform="rotate(-36.118101)" />
  </g>
</svg>
