<?xml version="1.0" encoding="UTF-8" standalone="no"?>
<!-- Created with Inkscape (http://www.inkscape.org/) -->

<svg
   width="100"
   height="100"
   viewBox="0 0 100 100"
   version="1.1"
   id="svg5"
   inkscape:version="1.2 (dc2aeda, 2022-05-15)"
   sodipodi:docname="bonusGrape.svg"
   xmlns:inkscape="http://www.inkscape.org/namespaces/inkscape"
   xmlns:sodipodi="http://sodipodi.sourceforge.net/DTD/sodipodi-0.dtd"
   xmlns="http://www.w3.org/2000/svg"
   xmlns:svg="http://www.w3.org/2000/svg">
  <sodipodi:namedview
     id="namedview7"
     pagecolor="#ffffff"
     bordercolor="#000000"
     borderopacity="0.25"
     inkscape:showpageshadow="2"
     inkscape:pageopacity="0.0"
     inkscape:pagecheckerboard="0"
     inkscape:deskcolor="#d1d1d1"
     inkscape:document-units="px"
     showgrid="true"
     inkscape:zoom="5.5731762"
     inkscape:cx="6.010935"
     inkscape:cy="50.150935"
     inkscape:window-width="1920"
     inkscape:window-height="1016"
     inkscape:window-x="0"
     inkscape:window-y="0"
     inkscape:window-maximized="1"
     inkscape:current-layer="layer1">
    <inkscape:grid
       type="xygrid"
       id="grid9" />
  </sodipodi:namedview>
  <defs
     id="defs2" />
  <g
     inkscape:label="Layer 1"
     inkscape:groupmode="layer"
     id="layer1">
    <path
       id="path18636"
       style="fill:#3ccf00;stroke:#000000;stroke-width:0"
       d="m 70.097421,34.235648 c 3.235923,3.076854 10.481973,11.837936 9.999694,17.19838 C 79.253588,60.809663 71.921518,77.066793 64.81908,82.543286 59.360858,86.75197 42.88245,86.311728 37.642859,82.641376 30.901127,77.918774 27.739388,68.217127 24.905781,59.135796 20.014066,43.458503 22.143648,34.978105 35.353557,30.385397 c 15.839209,-5.50684 -1.60476,-2.454159 13.055452,-2.901306 l 13.335871,2.028015 z"
       sodipodi:nodetypes="csssssccc" />
    <path
       style="fill:#008000;fill-opacity:1;stroke:#000000;stroke-width:0"
       d="m 44.123506,30.920568 c 0.09166,0.808053 0.966527,0.28513 1.246203,0.596468 0.247126,0.275102 0.762508,0.467223 1.099014,0.672866 1.911102,1.167895 4.73005,2.193739 6.873045,1.241297 0.288478,-0.128212 0.733866,-0.05735 0.981963,-0.182234 0.0394,-0.01983 -0.02475,-0.318789 0,-0.354657 0.248976,-0.360819 0.236791,-0.393363 0.362367,-0.809541 0.288003,-0.954495 0.150463,-1.921642 -0.173123,-2.68866 -0.181942,-0.431271 0,-4.797072 0,-5.678708 0,-0.791446 0.201467,-4.433295 0,-4.868465 -0.162409,-0.350803 -0.270255,-0.726025 -0.337134,-1.116536 -0.0289,-0.168769 0.03954,-0.362111 0,-0.528481 -0.03193,-0.134327 -0.224586,-0.16583 -0.3112,-0.273351 -0.110816,-0.137565 -0.0209,-0.228436 -0.06098,-0.38059 -0.02805,-0.106492 -0.834134,-0.849694 -0.959534,-0.927994 -0.143602,-0.08967 -0.924977,-0.481043 -0.977057,-0.530583 -0.244144,-0.232235 -1.063036,-1.011001 -1.36816,-1.141769 -0.08329,-0.0357 -0.349924,-5.37e-4 -0.422644,-0.05818 -0.196352,-0.155627 -0.256699,-0.303921 -0.511659,-0.393907 -0.130983,-0.04623 -0.307892,0.04304 -0.440166,0 -0.308264,-0.100308 -0.571667,-0.297689 -0.895052,-0.362366 -0.351796,-0.07036 -0.727286,0.01256 -1.068174,-0.06098 -0.286842,-0.06188 -0.557342,-0.251774 -0.841784,-0.30349 -0.364325,-0.06624 -0.767439,0.06926 -1.131255,0 -0.971021,-0.184855 -1.919066,-0.227693 -2.886315,-0.365871 -0.683968,-0.09771 -1.535842,0.170994 -2.194524,-0.05747 -1.162304,-0.403152 -5.432645,-0.414027 -6.872343,-0.30279 -0.434292,0.03355 -0.846453,0.207705 -1.280548,0.243914 -0.245981,0.02052 -0.560352,-0.05222 -0.807439,0 -0.311171,0.06576 -0.667337,0.30198 -0.960236,0.41914 -0.402048,0.160819 -0.886572,-0.06651 -1.265128,0.118452 -1.33446,0.652017 -2.675925,1.252427 -3.868277,2.104108 -0.387142,0.276529 -0.919016,0.514168 -1.340826,0.731741 -0.0989,0.05101 -0.335647,-3.8e-5 -0.424045,0.05747 -0.48966,0.318574 -0.998105,0.758214 -1.53848,0.990375 -0.146336,0.06287 -0.24022,-0.05642 -0.381992,0.05747 -0.242025,0.194423 -0.274752,0.297576 -0.576842,0.362366 -0.46971,0.100739 -0.963511,0.454836 -1.397599,0.695995 -0.22992,0.127734 -0.728237,0.296753 -0.728237,0.316808 0,0.379193 0.40472,0.483376 0.721228,0.550909 0.762731,0.162742 1.181859,0.40263 1.769077,0.875427 0.15938,0.128324 0.285712,0.350826 0.45839,0.458389 0.106315,0.06623 0.346504,-0.07148 0.448577,0 0.28381,0.198745 0.504001,0.424312 0.848091,0.546003 0.161327,0.05706 0.29565,-0.04098 0.449279,0.05818 0.233126,0.150462 0.364842,0.02677 0.585253,0.119153 0.159564,0.06688 0.03766,0.103725 0.262137,0.231999 0.613406,0.350517 2.942206,0.362899 3.748424,0.538993 0.277967,0.06071 -0.08156,0.06255 0.231998,0.180132 0.249192,0.09345 0.709538,0.152668 0.974955,0.182235 1.76547,0.196665 3.588231,0.120555 5.379422,0.120555 0.39833,0 2.058512,0.03083 2.23798,-0.121957 0.386592,-0.329126 3.204527,-0.862312 3.943975,-1.060465 0.410563,-0.11002 0.841047,-0.510886 1.270034,-0.682678 0.236998,-0.09491 0.535953,0.02039 0.749265,-0.119154 0.80476,-0.526447 2.72757,-1.687771 3.758937,-1.687771 0.671972,0 1.596732,-0.222658 2.295454,-0.03855 0.209599,0.05523 0.37963,0.318533 0.553712,0.459091 0.230278,0.185932 0.555725,0.31117 0.754872,0.630111 0.04357,0.06978 -0.02502,0.226302 0,0.304892 0.330794,1.038902 -0.03978,1.51785 -0.321014,2.551283 -0.07084,0.260315 -0.543161,0.203824 -0.688285,0.393206 -0.31062,0.405348 -0.679541,1.136999 -1.150881,1.394094 -0.136699,0.07456 -0.368315,0.08273 -0.492734,0.161908 -0.544363,0.346413 -0.823637,1.088396 -1.283352,1.534976 -0.09385,0.09116 -0.257044,0.05524 -0.349049,0.157002 -0.373561,0.413181 -0.92293,0.873623 -1.180319,1.363254 -0.06948,0.132171 -0.01757,0.29208 -0.09532,0.466801 -0.625063,1.404585 -0.697253,1.657917 -0.421943,3.21013 z"
       id="path25653" />
    <path
       style="fill:#009c00;fill-opacity:1;stroke:#000000;stroke-width:0"
       id="path26636"
       sodipodi:type="arc"
       sodipodi:cx="30.947601"
       sodipodi:cy="48.968094"
       sodipodi:rx="1.3804264"
       sodipodi:ry="1.3779732"
       sodipodi:start="5.9800505"
       sodipodi:end="5.9796884"
       sodipodi:arc-type="slice"
       d="m 32.265088,48.55675 a 1.3804264,1.3779732 0 0 1 -0.905291,1.726452 1.3804264,1.3779732 0 0 1 -1.729607,-0.903526 1.3804264,1.3779732 0 0 1 0.904978,-1.726615 1.3804264,1.3779732 0 0 1 1.72977,0.903213 l -1.317337,0.41182 z" />
    <path
       style="fill:#009c00;fill-opacity:1;stroke:#000000;stroke-width:0"
       id="path26636-3"
       sodipodi:type="arc"
       sodipodi:cx="32.881737"
       sodipodi:cy="39.78838"
       sodipodi:rx="1.3804264"
       sodipodi:ry="1.3779732"
       sodipodi:start="5.9800505"
       sodipodi:end="5.9796884"
       sodipodi:arc-type="slice"
       d="m 34.199223,39.377036 a 1.3804264,1.3779732 0 0 1 -0.905291,1.726451 1.3804264,1.3779732 0 0 1 -1.729607,-0.903526 1.3804264,1.3779732 0 0 1 0.904978,-1.726615 1.3804264,1.3779732 0 0 1 1.729771,0.903214 l -1.317337,0.41182 z" />
    <path
       style="fill:#009c00;fill-opacity:1;stroke:#000000;stroke-width:0"
       id="path26636-3-9"
       sodipodi:type="arc"
       sodipodi:cx="33.020866"
       sodipodi:cy="19.207798"
       sodipodi:rx="5.7596269"
       sodipodi:ry="1.3775886"
       sodipodi:start="5.9800505"
       sodipodi:end="5.9796884"
       sodipodi:arc-type="slice"
       d="m 38.517885,18.796569 a 5.7596269,1.3775886 0 0 1 -3.777194,1.72597 5.7596269,1.3775886 0 0 1 -7.216532,-0.903274 5.7596269,1.3775886 0 0 1 3.775888,-1.726133 5.7596269,1.3775886 0 0 1 7.217215,0.902961 l -5.496396,0.411705 z" />
    <path
       style="fill:#009c00;fill-opacity:1;stroke:#000000;stroke-width:0"
       id="path26636-3-5"
       sodipodi:type="arc"
       sodipodi:cx="41.057758"
       sodipodi:cy="44.657547"
       sodipodi:rx="1.3804264"
       sodipodi:ry="1.3779732"
       sodipodi:start="5.9800505"
       sodipodi:end="5.9796884"
       sodipodi:arc-type="slice"
       d="m 42.375245,44.246203 a 1.3804264,1.3779732 0 0 1 -0.905291,1.726452 1.3804264,1.3779732 0 0 1 -1.729607,-0.903526 1.3804264,1.3779732 0 0 1 0.904978,-1.726615 1.3804264,1.3779732 0 0 1 1.72977,0.903213 l -1.317337,0.41182 z" />
    <path
       style="fill:#009c00;fill-opacity:1;stroke:#000000;stroke-width:0"
       id="path26636-3-5-6"
       sodipodi:type="arc"
       sodipodi:cx="51.812401"
       sodipodi:cy="38.827442"
       sodipodi:rx="1.3804264"
       sodipodi:ry="1.3779732"
       sodipodi:start="5.9800505"
       sodipodi:end="5.9796884"
       sodipodi:arc-type="slice"
       d="m 53.129887,38.416099 a 1.3804264,1.3779732 0 0 1 -0.905291,1.726451 1.3804264,1.3779732 0 0 1 -1.729607,-0.903526 1.3804264,1.3779732 0 0 1 0.904978,-1.726615 1.3804264,1.3779732 0 0 1 1.729771,0.903213 l -1.317337,0.41182 z" />
    <path
       style="fill:#009c00;fill-opacity:1;stroke:#000000;stroke-width:0"
       id="path26636-3-5-6-2"
       sodipodi:type="arc"
       sodipodi:cx="40.604275"
       sodipodi:cy="33.770435"
       sodipodi:rx="1.3804264"
       sodipodi:ry="1.3779732"
       sodipodi:start="5.9800505"
       sodipodi:end="5.9796884"
       sodipodi:arc-type="slice"
       d="m 41.921761,33.359092 a 1.3804264,1.3779732 0 0 1 -0.905291,1.726451 1.3804264,1.3779732 0 0 1 -1.729607,-0.903526 1.3804264,1.3779732 0 0 1 0.904978,-1.726615 1.3804264,1.3779732 0 0 1 1.729771,0.903213 l -1.317337,0.41182 z" />
    <path
       style="fill:#009c00;fill-opacity:1;stroke:#000000;stroke-width:0"
       id="path26636-3-5-6-2-9"
       sodipodi:type="arc"
       sodipodi:cx="63.359756"
       sodipodi:cy="39.101498"
       sodipodi:rx="1.3804264"
       sodipodi:ry="1.3779732"
       sodipodi:start="5.9800505"
       sodipodi:end="5.9796884"
       sodipodi:arc-type="slice"
       d="m 64.677243,38.690154 a 1.3804264,1.3779732 0 0 1 -0.905291,1.726451 1.3804264,1.3779732 0 0 1 -1.729607,-0.903526 1.3804264,1.3779732 0 0 1 0.904978,-1.726615 1.3804264,1.3779732 0 0 1 1.729771,0.903214 l -1.317338,0.41182 z" />
    <path
       style="fill:#009c00;fill-opacity:1;stroke:#000000;stroke-width:0"
       id="path26636-3-5-6-2-9-1"
       sodipodi:type="arc"
       sodipodi:cx="57.39999"
       sodipodi:cy="43.660164"
       sodipodi:rx="1.3804264"
       sodipodi:ry="1.3779732"
       sodipodi:start="5.9800505"
       sodipodi:end="5.9796884"
       sodipodi:arc-type="slice"
       d="m 58.717476,43.24882 a 1.3804264,1.3779732 0 0 1 -0.905291,1.726452 1.3804264,1.3779732 0 0 1 -1.729607,-0.903526 1.3804264,1.3779732 0 0 1 0.904978,-1.726615 1.3804264,1.3779732 0 0 1 1.729771,0.903213 l -1.317337,0.41182 z" />
    <path
       style="fill:#009c00;fill-opacity:1;stroke:#000000;stroke-width:0"
       id="path26636-3-5-6-2-9-1-2"
       sodipodi:type="arc"
       sodipodi:cx="30.426479"
       sodipodi:cy="59.061081"
       sodipodi:rx="1.3804264"
       sodipodi:ry="1.3779732"
       sodipodi:start="5.9800505"
       sodipodi:end="5.9796884"
       sodipodi:arc-type="slice"
       d="m 31.743966,58.649737 a 1.3804264,1.3779732 0 0 1 -0.905291,1.726452 1.3804264,1.3779732 0 0 1 -1.729607,-0.903526 1.3804264,1.3779732 0 0 1 0.904978,-1.726615 1.3804264,1.3779732 0 0 1 1.72977,0.903213 l -1.317337,0.41182 z" />
    <path
       style="fill:#009c00;fill-opacity:1;stroke:#000000;stroke-width:0"
       id="path26636-3-5-6-2-9-1-2-7"
       sodipodi:type="arc"
       sodipodi:cx="39.137291"
       sodipodi:cy="53.936085"
       sodipodi:rx="1.3804264"
       sodipodi:ry="1.3779732"
       sodipodi:start="5.9800505"
       sodipodi:end="5.9796884"
       sodipodi:arc-type="slice"
       d="m 40.454777,53.524741 a 1.3804264,1.3779732 0 0 1 -0.905291,1.726452 1.3804264,1.3779732 0 0 1 -1.729607,-0.903526 1.3804264,1.3779732 0 0 1 0.904978,-1.726616 1.3804264,1.3779732 0 0 1 1.729771,0.903214 l -1.317337,0.41182 z" />
    <path
       style="fill:#009c00;fill-opacity:1;stroke:#000000;stroke-width:0"
       id="path26636-3-5-6-2-9-1-2-7-0"
       sodipodi:type="arc"
       sodipodi:cx="49.425831"
       sodipodi:cy="48.643574"
       sodipodi:rx="1.3804264"
       sodipodi:ry="1.3779732"
       sodipodi:start="5.9800505"
       sodipodi:end="5.9796884"
       sodipodi:arc-type="slice"
       d="m 50.743317,48.23223 a 1.3804264,1.3779732 0 0 1 -0.905291,1.726452 1.3804264,1.3779732 0 0 1 -1.729607,-0.903526 1.3804264,1.3779732 0 0 1 0.904978,-1.726616 1.3804264,1.3779732 0 0 1 1.729771,0.903214 l -1.317337,0.41182 z" />
    <path
       style="fill:#009c00;fill-opacity:1;stroke:#000000;stroke-width:0"
       id="path26636-3-5-6-2-9-1-2-7-0-9"
       sodipodi:type="arc"
       sodipodi:cx="51.083462"
       sodipodi:cy="59.991177"
       sodipodi:rx="1.3804264"
       sodipodi:ry="1.3779732"
       sodipodi:start="5.9800505"
       sodipodi:end="5.9796884"
       sodipodi:arc-type="slice"
       d="m 52.400948,59.579833 a 1.3804264,1.3779732 0 0 1 -0.905291,1.726451 1.3804264,1.3779732 0 0 1 -1.729607,-0.903526 1.3804264,1.3779732 0 0 1 0.904978,-1.726615 1.3804264,1.3779732 0 0 1 1.729771,0.903214 l -1.317337,0.41182 z" />
    <path
       style="fill:#009c00;fill-opacity:1;stroke:#000000;stroke-width:0"
       id="path26636-3-5-6-2-9-1-2-7-0-9-3"
       sodipodi:type="arc"
       sodipodi:cx="58.820019"
       sodipodi:cy="53.809219"
       sodipodi:rx="1.3804264"
       sodipodi:ry="1.3779732"
       sodipodi:start="5.9800505"
       sodipodi:end="5.9796884"
       sodipodi:arc-type="slice"
       d="m 60.137505,53.397876 a 1.3804264,1.3779732 0 0 1 -0.905291,1.726451 1.3804264,1.3779732 0 0 1 -1.729607,-0.903526 1.3804264,1.3779732 0 0 1 0.904978,-1.726615 1.3804264,1.3779732 0 0 1 1.729771,0.903214 l -1.317337,0.411819 z" />
    <path
       style="fill:#009c00;fill-opacity:1;stroke:#000000;stroke-width:0"
       id="path26636-3-5-6-2-9-1-2-7-0-9-3-6"
       sodipodi:type="arc"
       sodipodi:cx="59.546856"
       sodipodi:cy="32.59082"
       sodipodi:rx="1.3804264"
       sodipodi:ry="1.3779732"
       sodipodi:start="5.9800505"
       sodipodi:end="5.9796884"
       sodipodi:arc-type="slice"
       d="m 60.864342,32.179477 a 1.3804264,1.3779732 0 0 1 -0.905291,1.726451 1.3804264,1.3779732 0 0 1 -1.729607,-0.903526 1.3804264,1.3779732 0 0 1 0.904978,-1.726615 1.3804264,1.3779732 0 0 1 1.729771,0.903213 l -1.317337,0.41182 z" />
    <path
       style="fill:#009c00;fill-opacity:1;stroke:#000000;stroke-width:0"
       id="path26636-3-5-6-2-9-1-2-7-0-9-3-6-0"
       sodipodi:type="arc"
       sodipodi:cx="71.296768"
       sodipodi:cy="42.455311"
       sodipodi:rx="1.3804264"
       sodipodi:ry="1.3779732"
       sodipodi:start="5.9800505"
       sodipodi:end="5.9796884"
       sodipodi:arc-type="slice"
       d="m 72.614255,42.043967 a 1.3804264,1.3779732 0 0 1 -0.905292,1.726452 1.3804264,1.3779732 0 0 1 -1.729607,-0.903526 1.3804264,1.3779732 0 0 1 0.904978,-1.726615 1.3804264,1.3779732 0 0 1 1.729771,0.903213 l -1.317337,0.41182 z" />
    <path
       style="fill:#009c00;fill-opacity:1;stroke:#000000;stroke-width:0"
       id="path26636-3-5-6-2-9-1-2-7-0-9-3-6-0-6"
       sodipodi:type="arc"
       sodipodi:cx="70.422745"
       sodipodi:cy="52.249012"
       sodipodi:rx="1.3804264"
       sodipodi:ry="1.3779732"
       sodipodi:start="5.9800505"
       sodipodi:end="5.9796884"
       sodipodi:arc-type="slice"
       d="m 71.740231,51.837668 a 1.3804264,1.3779732 0 0 1 -0.905291,1.726452 1.3804264,1.3779732 0 0 1 -1.729607,-0.903526 1.3804264,1.3779732 0 0 1 0.904978,-1.726615 1.3804264,1.3779732 0 0 1 1.729771,0.903213 l -1.317337,0.41182 z" />
    <path
       style="fill:#009c00;fill-opacity:1;stroke:#000000;stroke-width:0"
       id="path26636-3-5-6-2-9-1-2-7-0-9-3-6-0-6-2"
       sodipodi:type="arc"
       sodipodi:cx="70.744461"
       sodipodi:cy="62.313267"
       sodipodi:rx="1.3804264"
       sodipodi:ry="1.3779732"
       sodipodi:start="5.9800505"
       sodipodi:end="5.9796884"
       sodipodi:arc-type="slice"
       d="m 72.061947,61.901923 a 1.3804264,1.3779732 0 0 1 -0.905291,1.726452 1.3804264,1.3779732 0 0 1 -1.729607,-0.903526 1.3804264,1.3779732 0 0 1 0.904978,-1.726616 1.3804264,1.3779732 0 0 1 1.729771,0.903214 l -1.317337,0.41182 z" />
    <path
       style="fill:#009c00;fill-opacity:1;stroke:#000000;stroke-width:0"
       id="path26636-3-5-6-2-9-1-2-7-0-9-3-6-0-6-2-6"
       sodipodi:type="arc"
       sodipodi:cx="63.891037"
       sodipodi:cy="59.548908"
       sodipodi:rx="1.3804264"
       sodipodi:ry="1.3779732"
       sodipodi:start="5.9800505"
       sodipodi:end="5.9796884"
       sodipodi:arc-type="slice"
       d="m 65.208523,59.137565 a 1.3804264,1.3779732 0 0 1 -0.905291,1.726451 1.3804264,1.3779732 0 0 1 -1.729607,-0.903526 1.3804264,1.3779732 0 0 1 0.904978,-1.726615 1.3804264,1.3779732 0 0 1 1.729771,0.903213 l -1.317337,0.41182 z" />
    <path
       style="fill:#009c00;fill-opacity:1;stroke:#000000;stroke-width:0"
       id="path26636-3-5-6-2-9-1-2-7-0-9-3-6-0-6-2-6-1"
       sodipodi:type="arc"
       sodipodi:cx="57.94389"
       sodipodi:cy="66.850204"
       sodipodi:rx="1.3804264"
       sodipodi:ry="1.3779732"
       sodipodi:start="5.9800505"
       sodipodi:end="5.9796884"
       sodipodi:arc-type="slice"
       d="m 59.261376,66.438861 a 1.3804264,1.3779732 0 0 1 -0.905291,1.726451 1.3804264,1.3779732 0 0 1 -1.729607,-0.903526 1.3804264,1.3779732 0 0 1 0.904978,-1.726615 1.3804264,1.3779732 0 0 1 1.729771,0.903214 l -1.317337,0.411819 z" />
    <path
       style="fill:#009c00;fill-opacity:1;stroke:#000000;stroke-width:0"
       id="path26636-3-5-6-2-9-1-2-7-0-9-3-6-0-6-2-6-1-8"
       sodipodi:type="arc"
       sodipodi:cx="65.567596"
       sodipodi:cy="72.594795"
       sodipodi:rx="1.3804264"
       sodipodi:ry="1.3779732"
       sodipodi:start="5.9800505"
       sodipodi:end="5.9796884"
       sodipodi:arc-type="slice"
       d="m 66.885083,72.183452 a 1.3804264,1.3779732 0 0 1 -0.905291,1.726451 1.3804264,1.3779732 0 0 1 -1.729607,-0.903526 1.3804264,1.3779732 0 0 1 0.904978,-1.726615 1.3804264,1.3779732 0 0 1 1.729771,0.903213 l -1.317338,0.41182 z" />
    <path
       style="fill:#009c00;fill-opacity:1;stroke:#000000;stroke-width:0"
       id="path26636-3-5-6-2-9-1-2-7-0-9-3-6-0-6-2-6-1-8-7"
       sodipodi:type="arc"
       sodipodi:cx="64.76857"
       sodipodi:cy="47.281025"
       sodipodi:rx="1.3804264"
       sodipodi:ry="1.3779732"
       sodipodi:start="5.9800505"
       sodipodi:end="5.9796884"
       sodipodi:arc-type="slice"
       d="m 66.086056,46.869681 a 1.3804264,1.3779732 0 0 1 -0.905291,1.726452 1.3804264,1.3779732 0 0 1 -1.729607,-0.903526 1.3804264,1.3779732 0 0 1 0.904978,-1.726615 1.3804264,1.3779732 0 0 1 1.729771,0.903213 l -1.317337,0.41182 z" />
    <path
       style="fill:#009c00;fill-opacity:1;stroke:#000000;stroke-width:0"
       id="path26636-3-5-6-2-9-1-2-7-0-9-3-6-0-6-2-6-1-8-7-9"
       sodipodi:type="arc"
       sodipodi:cx="41.912159"
       sodipodi:cy="61.777775"
       sodipodi:rx="1.3804264"
       sodipodi:ry="1.3779732"
       sodipodi:start="5.9800505"
       sodipodi:end="5.9796884"
       sodipodi:arc-type="slice"
       d="m 43.229645,61.366431 a 1.3804264,1.3779732 0 0 1 -0.905291,1.726452 1.3804264,1.3779732 0 0 1 -1.729607,-0.903526 1.3804264,1.3779732 0 0 1 0.904978,-1.726615 1.3804264,1.3779732 0 0 1 1.729771,0.903213 l -1.317337,0.41182 z" />
    <path
       style="fill:#009c00;fill-opacity:1;stroke:#000000;stroke-width:0"
       id="path26636-3-5-6-2-9-1-2-7-0-9-3-6-0-6-2-6-1-8-7-9-2"
       sodipodi:type="arc"
       sodipodi:cx="36.443726"
       sodipodi:cy="68.473495"
       sodipodi:rx="1.3804264"
       sodipodi:ry="1.3779732"
       sodipodi:start="5.9800505"
       sodipodi:end="5.9796884"
       sodipodi:arc-type="slice"
       d="m 37.761212,68.062152 a 1.3804264,1.3779732 0 0 1 -0.905291,1.726451 1.3804264,1.3779732 0 0 1 -1.729607,-0.903526 1.3804264,1.3779732 0 0 1 0.904978,-1.726615 1.3804264,1.3779732 0 0 1 1.729771,0.903214 l -1.317337,0.411819 z" />
    <path
       style="fill:#009c00;fill-opacity:1;stroke:#000000;stroke-width:0"
       id="path26636-3-5-6-2-9-1-2-7-0-9-3-6-0-6-2-6-1-8-7-9-2-0"
       sodipodi:type="arc"
       sodipodi:cx="39.459702"
       sodipodi:cy="76.631989"
       sodipodi:rx="1.3804264"
       sodipodi:ry="1.3779732"
       sodipodi:start="5.9800505"
       sodipodi:end="5.9796884"
       sodipodi:arc-type="slice"
       d="m 40.777188,76.220645 a 1.3804264,1.3779732 0 0 1 -0.905291,1.726451 1.3804264,1.3779732 0 0 1 -1.729607,-0.903526 1.3804264,1.3779732 0 0 1 0.904978,-1.726615 1.3804264,1.3779732 0 0 1 1.729771,0.903214 l -1.317337,0.41182 z" />
    <path
       style="fill:#009c00;fill-opacity:1;stroke:#000000;stroke-width:0"
       id="path26636-3-5-6-2-9-1-2-7-0-9-3-6-0-6-2-6-1-8-7-9-2-0-2"
       sodipodi:type="arc"
       sodipodi:cx="46.39653"
       sodipodi:cy="70.510315"
       sodipodi:rx="1.3804264"
       sodipodi:ry="1.3779732"
       sodipodi:start="5.9800505"
       sodipodi:end="5.9796884"
       sodipodi:arc-type="slice"
       d="m 47.714017,70.098971 a 1.3804264,1.3779732 0 0 1 -0.905292,1.726452 1.3804264,1.3779732 0 0 1 -1.729607,-0.903526 1.3804264,1.3779732 0 0 1 0.904978,-1.726615 1.3804264,1.3779732 0 0 1 1.729771,0.903213 l -1.317337,0.41182 z" />
    <path
       style="fill:#009c00;fill-opacity:1;stroke:#000000;stroke-width:0"
       id="path26636-3-5-6-2-9-1-2-7-0-9-3-6-0-6-2-6-1-8-7-9-2-0-2-3"
       sodipodi:type="arc"
       sodipodi:cx="54.944031"
       sodipodi:cy="74.805443"
       sodipodi:rx="1.3804264"
       sodipodi:ry="1.3779732"
       sodipodi:start="5.9800505"
       sodipodi:end="5.9796884"
       sodipodi:arc-type="slice"
       d="m 56.261517,74.394099 a 1.3804264,1.3779732 0 0 1 -0.905291,1.726452 1.3804264,1.3779732 0 0 1 -1.729607,-0.903526 1.3804264,1.3779732 0 0 1 0.904978,-1.726615 1.3804264,1.3779732 0 0 1 1.729771,0.903213 l -1.317337,0.41182 z" />
    <path
       style="fill:#009c00;fill-opacity:1;stroke:#000000;stroke-width:0"
       id="path26636-3-5-6-2-9-1-2-7-0-9-3-6-0-6-2-6-1-8-7-9-2-0-2-3-7"
       sodipodi:type="arc"
       sodipodi:cx="48.775394"
       sodipodi:cy="80.048889"
       sodipodi:rx="1.3804264"
       sodipodi:ry="1.3779732"
       sodipodi:start="5.9800505"
       sodipodi:end="5.9796884"
       sodipodi:arc-type="slice"
       d="m 50.092881,79.637545 a 1.3804264,1.3779732 0 0 1 -0.905291,1.726452 1.3804264,1.3779732 0 0 1 -1.729607,-0.903526 1.3804264,1.3779732 0 0 1 0.904978,-1.726615 1.3804264,1.3779732 0 0 1 1.729771,0.903213 l -1.317338,0.41182 z" />
    <path
       style="fill:#009c00;fill-opacity:1;stroke:#000000;stroke-width:0"
       id="path26636-3-5-6-2-9-1-2-7-0-9-3-6-0-6-2-6-1-8-7-9-2-0-2-3-7-5"
       sodipodi:type="arc"
       sodipodi:cx="59.643578"
       sodipodi:cy="80.810066"
       sodipodi:rx="1.3804264"
       sodipodi:ry="1.3779732"
       sodipodi:start="5.9800505"
       sodipodi:end="5.9796884"
       sodipodi:arc-type="slice"
       d="m 60.961064,80.398723 a 1.3804264,1.3779732 0 0 1 -0.905291,1.726451 1.3804264,1.3779732 0 0 1 -1.729607,-0.903526 1.3804264,1.3779732 0 0 1 0.904978,-1.726615 1.3804264,1.3779732 0 0 1 1.729771,0.903213 l -1.317337,0.41182 z" />
  </g>
</svg>
