<svg width="100" height="100" xmlns="http://www.w3.org/2000/svg"><path d="M80.803 46.851c5.35 16.773-4.177 34.624-21.278 39.871-17.1 5.248-35.3-4.094-40.653-20.866-5.352-16.772 6.593-49.959 21.271-39.875 5.598 3.846 11.045 3.817 17.43-.54 9.005-6.145 19.71 10.383 23.227 21.4l-30.963 9.51z" fill="#d40000"/><path d="M43.063 27.871l-.197-.729c0-.015.01-.033 0-.044-.293-.354-.855-.712-1.204-1.143-1.234-1.525-2.802-2.999-3.724-4.842-.092-.185-.314-.352-.363-.543-.152-.595-.525-1.157-.667-1.793-.038-.17.048-.38 0-.547-.08-.279-.217-.592-.284-.895-.14-.629-.078-.692-.375-1.288-.059-.118-.366-.93-.366-.821v-.13-.538c0-.52-.016-.937-.122-1.463-.273-1.368-.523-2.693-.67-4.084-.028-.27-.398-5.026-.183-5.255.197-.208 3.212.864 3.722 1.28 1.452 1.187 2.508 2.959 3.596 4.45 1.887 2.587 4.282 4.698 4.69 7.985.077.615.013 1.428.18 2.02.12.42.39.988.454 1.493.028.223 0 .586.109.776.158.278.274.974.274 1.304 0 .046-.037.476.049.427.747-.424 1.185-3.171 1.37-4.095.168-.84.717-1.703 1.036-2.5.412-1.03.698-2.098 1.158-3.108 1.71-3.763 5.221-7.085 8.863-8.906 1.037-.518 2.758-1.703 3.909-.75.17.142.504.413.606.606.334.637.235 2.263.058 2.97-.15.602-.46 1.167-.61 1.767-.344 1.376-1.743 4.395-2.555 5.53-.66.923-1.012 2.401-1.645 3.414-.57.909-1.596 1.53-2.172 2.42-.774 1.2-1.535 2.411-2.367 3.575-.115.161-.317.263-.426.427-.18.27-.24.727-.363.908-.138.206-.38.361-.507.568-.065.108-.002.287-.058.37-.313.46-.987 1.138-1.162 1.834 0 .002-.518-.01-.941-.1-.69-.145-1.513.088-2.112.318-.39.15-.867.335-1.28.427-.63.14-5.342-.085-5.51-.36-.166-.272-.135-.624-.211-.935z" fill="green"/><path d="M62.816 27.185a6.39 1.73-25.1 0 1-2.971 3.77 6.39 1.73-25.1 0 1-7.696 2.322 6.39 1.73-25.1 0 1 2.97-3.768 6.39 1.73-25.1 0 1 7.696-2.324l-5.333 3.046zM73.985 70.236a13.308 2.683-36.118 0 1-5.068 7.86 13.308 2.683-36.118 0 1-14.506 8.407 13.308 2.683-36.118 0 1 5.066-7.858 13.308 2.683-36.118 0 1 14.507-8.409l-9.786 8.134z" fill="#ff2a2a"/></svg>