<?xml version="1.0" encoding="UTF-8" standalone="no"?>
<!-- Created with Inkscape (http://www.inkscape.org/) -->

<svg
   width="100"
   height="100"
   viewBox="0 0 100 100"
   version="1.1"
   id="svg5"
   inkscape:version="1.2 (dc2aeda, 2022-05-15)"
   sodipodi:docname="bonusBell.svg"
   xmlns:inkscape="http://www.inkscape.org/namespaces/inkscape"
   xmlns:sodipodi="http://sodipodi.sourceforge.net/DTD/sodipodi-0.dtd"
   xmlns="http://www.w3.org/2000/svg"
   xmlns:svg="http://www.w3.org/2000/svg">
  <sodipodi:namedview
     id="namedview7"
     pagecolor="#ffffff"
     bordercolor="#000000"
     borderopacity="0.25"
     inkscape:showpageshadow="2"
     inkscape:pageopacity="0.0"
     inkscape:pagecheckerboard="0"
     inkscape:deskcolor="#d1d1d1"
     inkscape:document-units="px"
     showgrid="true"
     inkscape:zoom="5.5731762"
     inkscape:cx="6.1903659"
     inkscape:cy="66.479147"
     inkscape:window-width="1920"
     inkscape:window-height="1016"
     inkscape:window-x="0"
     inkscape:window-y="0"
     inkscape:window-maximized="1"
     inkscape:current-layer="layer1">
    <inkscape:grid
       type="xygrid"
       id="grid9" />
  </sodipodi:namedview>
  <defs
     id="defs2" />
  <g
     inkscape:label="Layer 1"
     inkscape:groupmode="layer"
     id="layer1">
    <path
       id="rect29907"
       style="fill:#ebeb00;stroke:#000000;stroke-width:0"
       transform="matrix(-0.72200553,0.69188729,-0.7192975,-0.69470217,0,0)"
       d="m -1.9256183,-102.40813 10.8588896,17.664048 10.0420697,10.026578 17.01832,10.31099 -25.155839,17.769119 -20.965562,0.793285 -10.697964,-10.640883 0.53913,-21.333785 z"
       sodipodi:nodetypes="ccccccccc" />
    <path
       id="rect33285"
       style="fill:#dbc900;fill-opacity:1;stroke:#000000;stroke-width:0"
       d="M 20.483859,69.726426 39.265928,65.24556 55.084726,65.13564 74.860532,69.692082 59.973375,75.460505 35.318449,75.067299 Z"
       sodipodi:nodetypes="ccccccc" />
    <rect
       style="fill:#666666;fill-opacity:1;stroke:#000000;stroke-width:0"
       id="rect34792"
       width="6.3074174"
       height="12.047104"
       x="44.491852"
       y="65.389244" />
    <path
       id="rect34848"
       style="fill:#e3a54a;stroke:#000000;stroke-width:0;fill-opacity:1"
       d="m 21.149717,66.378915 19.190694,-5.504183 15.27883,0.0463 18.34015,6.568181 1.307834,2.470945 -20.332742,-4.9681 -14.995688,0.738526 -19.196301,4.185787 z"
       sodipodi:nodetypes="ccccccccc" />
    <path
       style="fill:#e3de4a;fill-opacity:1;stroke:#000000;stroke-width:0"
       id="path42233"
       sodipodi:type="arc"
       sodipodi:cx="43.016331"
       sodipodi:cy="58.60915"
       sodipodi:rx="2.6409347"
       sodipodi:ry="9.3154001"
       sodipodi:start="5.9800505"
       sodipodi:end="5.9796884"
       sodipodi:arc-type="slice"
       d="m 45.536853,55.828377 a 2.6409347,9.3154001 0 0 1 -1.731939,11.671189 2.6409347,9.3154001 0 0 1 -3.308963,-6.108033 2.6409347,9.3154001 0 0 1 1.73134,-11.672296 2.6409347,9.3154001 0 0 1 3.309276,6.105921 l -2.520236,2.783992 z"
       transform="rotate(-19.356014)" />
    <path
       style="fill:#484537;fill-opacity:1;stroke:#000000;stroke-width:0"
       id="path44055"
       sodipodi:type="arc"
       sodipodi:cx="47.513794"
       sodipodi:cy="76.973747"
       sodipodi:rx="5.5395784"
       sodipodi:ry="5.3156404"
       sodipodi:start="5.9800505"
       sodipodi:end="5.9796884"
       sodipodi:arc-type="slice"
       d="m 52.800798,75.386957 a 5.5395784,5.3156404 0 0 1 -3.632886,6.659923 5.5395784,5.3156404 0 0 1 -6.940822,-3.485424 5.5395784,5.3156404 0 0 1 3.631629,-6.660554 5.5395784,5.3156404 0 0 1 6.941479,3.484218 l -5.286404,1.588627 z" />
    <path
       id="rect44213"
       style="fill:#ebeb00;stroke:#000000;stroke-width:0"
       d="m 40.321486,25.064954 2.127051,-7.821312 2.313098,-2.496659 4.860889,0.145138 2.886245,1.483752 3.358021,8.623897 -5.988564,0.03785 -0.0093,-4.766975 -4.644472,-0.34072 -0.523719,4.964708 z"
       sodipodi:nodetypes="ccccccccccc" />
  </g>
</svg>
