<svg width="100" height="100" xmlns="http://www.w3.org/2000/svg"><path d="M70.097 34.236c3.236 3.077 10.482 11.838 10 17.198-.843 9.376-8.175 25.633-15.278 31.11-5.458 4.208-21.937 3.768-27.176.097-6.742-4.722-9.904-14.424-12.737-23.505-4.892-15.677-2.762-24.158 10.448-28.75 15.839-5.507-1.605-2.455 13.055-2.902l13.336 2.028z" fill="#3ccf00"/><path d="M44.124 30.92c.091.809.966.286 1.246.597.247.275.762.467 1.099.673 1.91 1.168 4.73 2.194 6.873 1.241.288-.128.734-.057.982-.182.04-.02-.025-.319 0-.355.249-.36.237-.393.362-.81.288-.954.15-1.92-.173-2.688-.182-.431 0-4.797 0-5.679 0-.791.201-4.433 0-4.868a4.424 4.424 0 0 1-.337-1.117c-.03-.168.04-.362 0-.528-.032-.134-.225-.166-.311-.273-.111-.138-.021-.229-.061-.381-.028-.107-.834-.85-.96-.928-.143-.09-.925-.481-.977-.53-.244-.233-1.063-1.012-1.368-1.142-.083-.036-.35 0-.423-.059-.196-.155-.256-.303-.511-.393-.131-.047-.308.043-.44 0-.309-.1-.572-.298-.896-.363-.351-.07-.727.013-1.068-.06-.287-.063-.557-.253-.842-.304-.364-.067-.767.069-1.13 0-.972-.185-1.92-.228-2.887-.366-.684-.098-1.536.17-2.195-.058-1.162-.403-5.432-.414-6.872-.302-.434.033-.846.207-1.28.243-.247.021-.56-.052-.808 0-.311.066-.667.302-.96.42-.402.16-.887-.067-1.265.118-1.335.652-2.676 1.253-3.869 2.104-.387.277-.919.514-1.34.732-.1.05-.336 0-.425.057-.49.319-.998.759-1.538.99-.146.064-.24-.056-.382.058-.242.195-.275.298-.577.363-.47.1-.963.454-1.397.696-.23.127-.729.296-.729.316 0 .38.405.484.722.551.762.163 1.181.403 1.769.876.159.128.285.35.458.458.106.066.347-.071.449 0 .283.199.504.424.848.546.161.057.295-.04.449.058.233.15.365.027.585.12.16.066.038.103.262.231.614.351 2.943.363 3.749.54.278.06-.082.062.232.18.249.093.71.152.975.182 1.765.196 3.588.12 5.38.12.398 0 2.058.031 2.237-.122.387-.329 3.205-.862 3.944-1.06.41-.11.841-.51 1.27-.683.237-.095.536.02.75-.119.804-.526 2.727-1.688 3.758-1.688.672 0 1.597-.222 2.296-.038.21.055.38.318.554.459.23.186.555.311.754.63.044.07-.025.226 0 .305.331 1.039-.04 1.518-.32 2.551-.071.26-.544.204-.689.393-.31.406-.68 1.137-1.15 1.394-.137.075-.37.083-.494.162-.544.347-.823 1.089-1.283 1.535-.094.092-.257.056-.349.157-.373.414-.923.874-1.18 1.364-.07.132-.018.292-.096.466-.625 1.405-.697 1.658-.421 3.21z" fill="green"/><path d="M32.265 48.557a1.38 1.378 0 0 1-.905 1.726 1.38 1.378 0 0 1-1.73-.903 1.38 1.378 0 0 1 .905-1.727 1.38 1.378 0 0 1 1.73.903l-1.317.412zM34.2 39.377a1.38 1.378 0 0 1-.906 1.726 1.38 1.378 0 0 1-1.73-.903 1.38 1.378 0 0 1 .905-1.727 1.38 1.378 0 0 1 1.73.904l-1.317.411zM38.518 18.797a5.76 1.378 0 0 1-3.777 1.726 5.76 1.378 0 0 1-7.217-.904 5.76 1.378 0 0 1 3.776-1.726 5.76 1.378 0 0 1 7.217.903l-5.496.412zM42.375 44.246a1.38 1.378 0 0 1-.905 1.727 1.38 1.378 0 0 1-1.73-.904 1.38 1.378 0 0 1 .905-1.726 1.38 1.378 0 0 1 1.73.903l-1.317.412zM53.13 38.416a1.38 1.378 0 0 1-.905 1.727 1.38 1.378 0 0 1-1.73-.904 1.38 1.378 0 0 1 .905-1.727 1.38 1.378 0 0 1 1.73.904l-1.318.411zM41.922 33.36a1.38 1.378 0 0 1-.906 1.726 1.38 1.378 0 0 1-1.73-.904 1.38 1.378 0 0 1 .906-1.727 1.38 1.378 0 0 1 1.73.904l-1.318.411zM64.677 38.69a1.38 1.378 0 0 1-.905 1.727 1.38 1.378 0 0 1-1.73-.904 1.38 1.378 0 0 1 .905-1.727 1.38 1.378 0 0 1 1.73.904l-1.317.411zM58.717 43.249a1.38 1.378 0 0 1-.905 1.726 1.38 1.378 0 0 1-1.73-.903 1.38 1.378 0 0 1 .906-1.727 1.38 1.378 0 0 1 1.73.903l-1.318.412zM31.744 58.65a1.38 1.378 0 0 1-.905 1.726 1.38 1.378 0 0 1-1.73-.903 1.38 1.378 0 0 1 .905-1.727 1.38 1.378 0 0 1 1.73.903l-1.318.412zM40.455 53.525a1.38 1.378 0 0 1-.906 1.726 1.38 1.378 0 0 1-1.73-.903 1.38 1.378 0 0 1 .906-1.727 1.38 1.378 0 0 1 1.73.903l-1.318.412zM50.743 48.232a1.38 1.378 0 0 1-.905 1.727 1.38 1.378 0 0 1-1.73-.904 1.38 1.378 0 0 1 .905-1.726 1.38 1.378 0 0 1 1.73.903l-1.317.412zM52.4 59.58a1.38 1.378 0 0 1-.904 1.726 1.38 1.378 0 0 1-1.73-.903 1.38 1.378 0 0 1 .905-1.727 1.38 1.378 0 0 1 1.73.903l-1.318.412zM60.138 53.398a1.38 1.378 0 0 1-.906 1.726 1.38 1.378 0 0 1-1.73-.903 1.38 1.378 0 0 1 .906-1.727 1.38 1.378 0 0 1 1.73.903l-1.318.412zM60.864 32.18a1.38 1.378 0 0 1-.905 1.726 1.38 1.378 0 0 1-1.73-.904 1.38 1.378 0 0 1 .905-1.726 1.38 1.378 0 0 1 1.73.903l-1.317.412zM72.614 42.044a1.38 1.378 0 0 1-.905 1.726 1.38 1.378 0 0 1-1.73-.903 1.38 1.378 0 0 1 .905-1.727 1.38 1.378 0 0 1 1.73.903l-1.317.412zM71.74 51.838a1.38 1.378 0 0 1-.905 1.726 1.38 1.378 0 0 1-1.73-.903 1.38 1.378 0 0 1 .905-1.727 1.38 1.378 0 0 1 1.73.903l-1.317.412zM72.062 61.902a1.38 1.378 0 0 1-.905 1.726 1.38 1.378 0 0 1-1.73-.903 1.38 1.378 0 0 1 .905-1.727 1.38 1.378 0 0 1 1.73.903l-1.318.412zM65.209 59.138a1.38 1.378 0 0 1-.906 1.726 1.38 1.378 0 0 1-1.73-.904 1.38 1.378 0 0 1 .906-1.726 1.38 1.378 0 0 1 1.73.903l-1.318.412zM59.261 66.439a1.38 1.378 0 0 1-.905 1.726 1.38 1.378 0 0 1-1.73-.903 1.38 1.378 0 0 1 .905-1.727 1.38 1.378 0 0 1 1.73.903l-1.317.412zM66.885 72.183a1.38 1.378 0 0 1-.905 1.727 1.38 1.378 0 0 1-1.73-.904 1.38 1.378 0 0 1 .905-1.726 1.38 1.378 0 0 1 1.73.903l-1.317.412zM66.086 46.87a1.38 1.378 0 0 1-.905 1.726 1.38 1.378 0 0 1-1.73-.903 1.38 1.378 0 0 1 .905-1.727 1.38 1.378 0 0 1 1.73.903l-1.317.412zM43.23 61.366a1.38 1.378 0 0 1-.906 1.727 1.38 1.378 0 0 1-1.73-.904 1.38 1.378 0 0 1 .906-1.726 1.38 1.378 0 0 1 1.73.903l-1.318.412zM37.761 68.062a1.38 1.378 0 0 1-.905 1.727 1.38 1.378 0 0 1-1.73-.904 1.38 1.378 0 0 1 .905-1.727 1.38 1.378 0 0 1 1.73.904l-1.317.411zM40.777 76.22a1.38 1.378 0 0 1-.905 1.727 1.38 1.378 0 0 1-1.73-.903 1.38 1.378 0 0 1 .905-1.727 1.38 1.378 0 0 1 1.73.903l-1.317.412zM47.714 70.099a1.38 1.378 0 0 1-.905 1.726 1.38 1.378 0 0 1-1.73-.903 1.38 1.378 0 0 1 .905-1.727 1.38 1.378 0 0 1 1.73.903l-1.317.412zM56.262 74.394a1.38 1.378 0 0 1-.906 1.727 1.38 1.378 0 0 1-1.73-.904 1.38 1.378 0 0 1 .906-1.727 1.38 1.378 0 0 1 1.73.904l-1.318.411zM50.093 79.638a1.38 1.378 0 0 1-.905 1.726 1.38 1.378 0 0 1-1.73-.904 1.38 1.378 0 0 1 .905-1.726 1.38 1.378 0 0 1 1.73.903l-1.318.412zM60.961 80.399a1.38 1.378 0 0 1-.905 1.726 1.38 1.378 0 0 1-1.73-.903 1.38 1.378 0 0 1 .905-1.727 1.38 1.378 0 0 1 1.73.903l-1.317.412z" fill="#009c00"/></svg>