<?xml version="1.0" encoding="UTF-8" standalone="no"?>
<!-- Created with Inkscape (http://www.inkscape.org/) -->

<svg
   width="100"
   height="100"
   viewBox="0 0 100 100"
   version="1.1"
   id="svg5"
   inkscape:version="1.2 (dc2aeda, 2022-05-15)"
   sodipodi:docname="bonusStrawberry.svg"
   xmlns:inkscape="http://www.inkscape.org/namespaces/inkscape"
   xmlns:sodipodi="http://sodipodi.sourceforge.net/DTD/sodipodi-0.dtd"
   xmlns="http://www.w3.org/2000/svg"
   xmlns:svg="http://www.w3.org/2000/svg">
  <sodipodi:namedview
     id="namedview7"
     pagecolor="#ffffff"
     bordercolor="#000000"
     borderopacity="0.25"
     inkscape:showpageshadow="2"
     inkscape:pageopacity="0.0"
     inkscape:pagecheckerboard="0"
     inkscape:deskcolor="#d1d1d1"
     inkscape:document-units="px"
     showgrid="true"
     inkscape:zoom="5.5731762"
     inkscape:cx="6.010935"
     inkscape:cy="50.150935"
     inkscape:window-width="1920"
     inkscape:window-height="1016"
     inkscape:window-x="0"
     inkscape:window-y="0"
     inkscape:window-maximized="1"
     inkscape:current-layer="layer1">
    <inkscape:grid
       type="xygrid"
       id="grid9" />
  </sodipodi:namedview>
  <defs
     id="defs2" />
  <g
     inkscape:label="Layer 1"
     inkscape:groupmode="layer"
     id="layer1">
    <path
       id="path10093"
       style="fill:#ff0000;stroke:#000000;stroke-width:0"
       d="M 77.130661,45.216964 C 81.709304,63.195363 73.436998,82.702693 58.798607,88.327504 52.321239,90.816436 44.266376,91.393923 39.056058,88.00922 32.491428,83.744747 26.671073,75.610044 24.116964,65.587507 19.53567,47.610126 27.687404,28.475264 42.324966,22.847199 56.962528,17.219134 72.543714,27.228814 77.127658,45.205176 L 50.623062,55.399288 Z"
       sodipodi:nodetypes="cssssccc" />
    <path
       style="fill:#008000;stroke:#000000;stroke-width:0"
       d="m 29.549325,34.387651 c 0.169138,0.201454 1.046096,-0.148905 1.379375,0.02804 0.171081,0.09083 0.163789,0.3136 0.281762,0.416336 0.651633,0.567463 0.826725,1.030502 1.77118,1.124947 0.128381,0.01284 0.598708,0.06285 0.728237,0 0.19249,-0.0934 0.42804,-0.112696 0.595065,-0.230596 0.51989,-0.366981 1.029429,-1.22875 1.713005,-1.380076 0.630503,-0.139577 1.421917,-0.182747 2.085884,-0.11635 0.156752,0.01568 0.750789,-0.01902 0.911873,0.06098 0.08294,0.04119 0.24026,0.295026 0.377086,0.353956 0.151742,0.06535 0.586362,0.0219 0.717022,0.118452 0.711591,0.525806 2.000332,0.800395 2.883511,0.45068 0.0105,-0.0042 0.198889,-0.288351 0.259334,-0.331526 0.263073,-0.18791 0.435914,-0.255764 0.702303,-0.365871 0.09702,-0.0401 0.112598,-0.18219 0.194851,-0.247419 0.920845,-0.730245 1.133534,-0.979749 2.322088,-1.087799 0.475916,-0.04326 1.319699,-0.305429 1.809729,-0.121256 0.204268,0.07677 0.385192,0.557891 0.619597,0.658847 0.831279,0.358026 2.339304,2.12655 3.463858,1.591048 0.148743,-0.07083 0.299969,-0.323631 0.424045,-0.424046 0.132009,-0.106835 0.246029,-0.01093 0.379188,-0.06098 0.06359,-0.0239 0.243636,-0.29751 0.332228,-0.371478 0.560116,-0.46766 1.638813,-1.774349 2.285641,-1.951311 0.190965,-0.05225 1.03719,-0.122612 1.195739,0 0.504818,0.390392 0.89824,1.03746 1.415121,1.455773 0.13282,0.107491 0.237671,0.0028 0.36517,0.06098 0.282196,0.12877 0.531154,0.5115 0.818653,0.635018 0.153796,0.06608 0.542641,0 0.706509,0 1.90164,0 1.63289,-0.949176 3.01528,-1.377974 0.198804,-0.06167 0.353118,-0.427677 0.620299,-0.487126 0.370773,-0.0825 0.812781,0.06738 1.130554,0.182935 0.204534,0.07438 0.812967,-0.007 0.967946,0.118452 0.405792,0.328499 0.99659,0.804181 1.517453,1.077988 0.717629,0.377243 1.574006,0.285267 2.377459,0.285267 1.122662,0 1.649692,0.116581 2.438438,-0.672165 0.06371,-0.06372 0.232009,-0.121682 0.180132,-0.235503 -0.501212,-1.099674 -1.523123,-1.63749 -2.150367,-2.645905 -0.19311,-0.31046 -0.344509,-0.799934 -0.503248,-1.074483 -0.53514,-0.925557 -1.714455,-1.55682 -2.40129,-2.405495 -0.477,-0.589397 -0.843333,-1.356998 -1.438251,-1.838466 -0.232473,-0.188141 -0.751697,-0.512586 -1.019111,-0.571936 -0.07095,-0.01575 -0.349624,0.0487 -0.408626,0 -0.27424,-0.226357 -0.639258,-0.282048 -0.741554,-0.362366 -0.09745,-0.07652 -0.148997,-0.213929 -0.262839,-0.262839 -0.129413,-0.0556 -0.477469,0.09076 -0.578945,0 -0.330531,-0.295616 -0.676653,-0.51645 -1.108826,-0.634316 -0.11215,-0.03059 -0.269539,-0.250438 -0.381291,-0.312602 -0.657592,-0.365802 -0.974292,-0.74632 -1.583338,-1.209763 -0.210809,-0.160412 -0.694109,-0.534946 -0.949722,-0.604878 -0.0862,-0.02358 -0.240132,0.04634 -0.312602,0 -0.212097,-0.13562 -0.311922,-0.257302 -0.578945,-0.337134 -0.203036,-0.0607 -0.456673,0.05492 -0.661651,0 -0.630624,-0.168952 -1.673593,-0.196864 -2.234476,-0.411429 -0.442792,-0.169391 -1.157856,-0.793274 -1.734732,-0.913276 -0.192395,-0.04002 -0.719889,0.115459 -0.864212,0 -0.364845,-0.291876 -3.514656,-0.368407 -4.057521,-0.249521 -0.156264,0.03422 -0.263177,0.190525 -0.414934,0.24111 -0.184041,0.06135 -0.440107,-0.004 -0.623102,0.06098 -0.103963,0.03691 -0.190935,0.170609 -0.321013,0.222887 -0.324618,0.130461 -1.872859,0.220873 -2.321387,0.278258 -0.399842,0.05116 -0.6572,0.29717 -1.000188,0.447876 -0.178323,0.07835 -0.529552,-0.02543 -0.673566,0.06098 -0.739265,0.443558 -1.59336,0.547171 -2.324191,0.984767 -0.561014,0.335916 -1.146646,0.561258 -1.650624,0.964441 -0.450622,0.360497 -0.88165,0.75923 -1.373067,1.066072 -0.103638,0.06471 -0.290788,0.0153 -0.389702,0.09392 -0.860501,0.683988 -1.866271,1.04724 -2.802906,1.504135 -0.753729,0.367673 -1.486909,1.224398 -2.103407,1.741041 -0.53877,0.451504 -0.698944,0.90086 -1.080791,1.435447 -0.602736,0.84383 -1.214247,1.709 -1.873511,2.500117 -0.365556,0.438668 -0.688446,0.966039 -1.00299,1.469791 -0.06316,0.101146 0.0395,0.323476 0,0.437363 -0.02379,0.06858 -0.257015,0.692737 -0.119855,0.787113 0.309514,0.212968 0.717497,0.228081 1.061166,0.379888 z"
       id="path12402" />
    <path
       style="fill:#004e00;stroke:#000000;stroke-width:0;fill-opacity:1"
       d="m 49.244669,20.907204 c 0,-0.253026 0,-0.506051 0,-0.759077 0.01986,-0.05701 0.05292,-0.111022 0.05958,-0.17102 0.05342,-0.481395 0.04236,-0.974673 0.121957,-1.452269 0.156799,-0.940793 0.677772,-1.577139 0.677772,-2.550582 0,-0.440463 0.264059,-0.818955 0.352554,-1.260923 0.03863,-0.192927 -0.05046,-0.425461 0,-0.616092 0.151258,-0.571422 0.601429,-1.321497 0.843886,-1.954115 0.04086,-0.10661 -0.06525,-0.332941 0,-0.424046 0.204721,-0.285837 0.812693,-0.639356 0.970749,-1.101817 0.06524,-0.19089 0.768416,0.243913 0.799729,0.243913 0.374866,0 0.83407,-0.05488 1.02612,0.127565 0.164051,0.155848 0.711391,-0.120623 0.911173,0 0.03386,0.02045 -0.112848,2.080776 -0.190645,2.29265 -0.383173,1.043535 -1.165639,0.884958 -1.523761,1.524462 -0.233531,0.417019 0.253158,1.258278 0,1.659735 -0.18878,0.299367 -0.713475,1.695567 -0.792019,2.087987 -0.04078,0.203753 -0.137608,2.022725 -0.182936,2.0978 -0.249333,0.412957 -0.589458,0.762612 -0.589458,1.362553 0,0.08691 0.03058,0.17938 0,0.260736 -0.06087,0.161964 -0.808277,-0.148549 -0.844587,-0.161208 -0.346798,-0.120902 -1.040838,0.173769 -1.331714,-0.131069 -0.274147,-0.287306 -0.232751,-0.591762 -0.308397,-1.075183 z"
       id="path13968" />
    <path
       style="fill:#e3dbdb;fill-opacity:1;stroke:#000000;stroke-width:0"
       id="path14800"
       sodipodi:type="arc"
       sodipodi:cx="33.701817"
       sodipodi:cy="46.238152"
       sodipodi:rx="2.0890381"
       sodipodi:ry="3.3899121"
       sodipodi:start="5.9800505"
       sodipodi:end="5.9796884"
       sodipodi:arc-type="slice"
       d="m 35.695606,45.226217 a 2.0890381,3.3899121 0 0 1 -1.370003,4.247193 2.0890381,3.3899121 0 0 1 -2.617463,-2.222738 2.0890381,3.3899121 0 0 1 1.369529,-4.247596 2.0890381,3.3899121 0 0 1 2.617711,2.221969 l -1.993563,1.013107 z" />
    <path
       style="fill:#e3dbdb;fill-opacity:1;stroke:#000000;stroke-width:0"
       id="path14800-6"
       sodipodi:type="arc"
       sodipodi:cx="43.756607"
       sodipodi:cy="56.177288"
       sodipodi:rx="2.0890381"
       sodipodi:ry="3.3899121"
       sodipodi:start="5.9800505"
       sodipodi:end="5.9796884"
       sodipodi:arc-type="slice"
       d="m 45.750396,55.165353 a 2.0890381,3.3899121 0 0 1 -1.370002,4.247194 2.0890381,3.3899121 0 0 1 -2.617463,-2.222739 2.0890381,3.3899121 0 0 1 1.369528,-4.247595 2.0890381,3.3899121 0 0 1 2.617711,2.221969 l -1.993563,1.013106 z" />
    <path
       style="fill:#e3dbdb;fill-opacity:1;stroke:#000000;stroke-width:0"
       id="path14800-6-0"
       sodipodi:type="arc"
       sodipodi:cx="42.290329"
       sodipodi:cy="41.019585"
       sodipodi:rx="2.0890381"
       sodipodi:ry="3.3899121"
       sodipodi:start="5.9800505"
       sodipodi:end="5.9796884"
       sodipodi:arc-type="slice"
       d="m 44.284118,40.00765 a 2.0890381,3.3899121 0 0 1 -1.370002,4.247193 2.0890381,3.3899121 0 0 1 -2.617463,-2.222738 2.0890381,3.3899121 0 0 1 1.369528,-4.247596 2.0890381,3.3899121 0 0 1 2.617711,2.22197 l -1.993563,1.013106 z" />
    <path
       style="fill:#e3dbdb;fill-opacity:1;stroke:#000000;stroke-width:0"
       id="path14800-6-7"
       sodipodi:type="arc"
       sodipodi:cx="53.637222"
       sodipodi:cy="47.782589"
       sodipodi:rx="2.0890381"
       sodipodi:ry="3.3899121"
       sodipodi:start="5.9800505"
       sodipodi:end="5.9796884"
       sodipodi:arc-type="slice"
       d="m 55.631012,46.770654 a 2.0890381,3.3899121 0 0 1 -1.370003,4.247194 2.0890381,3.3899121 0 0 1 -2.617463,-2.222739 2.0890381,3.3899121 0 0 1 1.369529,-4.247596 2.0890381,3.3899121 0 0 1 2.617711,2.22197 l -1.993564,1.013106 z" />
    <path
       style="fill:#e3dbdb;fill-opacity:1;stroke:#000000;stroke-width:0"
       id="path14800-6-7-9"
       sodipodi:type="arc"
       sodipodi:cx="61.481716"
       sodipodi:cy="51.664883"
       sodipodi:rx="2.0890381"
       sodipodi:ry="3.3899121"
       sodipodi:start="5.9800505"
       sodipodi:end="5.9796884"
       sodipodi:arc-type="slice"
       d="m 63.475505,50.652948 a 2.0890381,3.3899121 0 0 1 -1.370002,4.247193 2.0890381,3.3899121 0 0 1 -2.617463,-2.222738 2.0890381,3.3899121 0 0 1 1.369529,-4.247596 2.0890381,3.3899121 0 0 1 2.61771,2.22197 l -1.993563,1.013106 z" />
    <path
       style="fill:#e3dbdb;fill-opacity:1;stroke:#000000;stroke-width:0"
       id="path14800-6-7-5"
       sodipodi:type="arc"
       sodipodi:cx="69.700493"
       sodipodi:cy="41.245277"
       sodipodi:rx="2.0890381"
       sodipodi:ry="3.3899121"
       sodipodi:start="5.9800505"
       sodipodi:end="5.9796884"
       sodipodi:arc-type="slice"
       d="m 71.694282,40.233343 a 2.0890381,3.3899121 0 0 1 -1.370002,4.247193 2.0890381,3.3899121 0 0 1 -2.617463,-2.222738 2.0890381,3.3899121 0 0 1 1.369528,-4.247596 2.0890381,3.3899121 0 0 1 2.617711,2.221969 l -1.993563,1.013106 z" />
    <path
       style="fill:#e3dbdb;fill-opacity:1;stroke:#000000;stroke-width:0"
       id="path14800-6-7-5-3"
       sodipodi:type="arc"
       sodipodi:cx="70.226166"
       sodipodi:cy="61.679371"
       sodipodi:rx="2.0890381"
       sodipodi:ry="3.3899121"
       sodipodi:start="5.9800505"
       sodipodi:end="5.9796884"
       sodipodi:arc-type="slice"
       d="m 72.219955,60.667436 a 2.0890381,3.3899121 0 0 1 -1.370003,4.247194 2.0890381,3.3899121 0 0 1 -2.617463,-2.222739 2.0890381,3.3899121 0 0 1 1.369529,-4.247596 2.0890381,3.3899121 0 0 1 2.617711,2.22197 l -1.993563,1.013106 z" />
    <path
       style="fill:#e3dbdb;fill-opacity:1;stroke:#000000;stroke-width:0"
       id="path14800-6-7-5-3-7"
       sodipodi:type="arc"
       sodipodi:cx="60.716331"
       sodipodi:cy="63.072762"
       sodipodi:rx="2.0890381"
       sodipodi:ry="3.3899121"
       sodipodi:start="5.9800505"
       sodipodi:end="5.9796884"
       sodipodi:arc-type="slice"
       d="m 62.710121,62.060827 a 2.0890381,3.3899121 0 0 1 -1.370003,4.247193 2.0890381,3.3899121 0 0 1 -2.617463,-2.222738 2.0890381,3.3899121 0 0 1 1.369529,-4.247596 2.0890381,3.3899121 0 0 1 2.617711,2.221969 l -1.993564,1.013107 z" />
    <path
       style="fill:#e3dbdb;fill-opacity:1;stroke:#000000;stroke-width:0"
       id="path14800-6-7-5-3-5"
       sodipodi:type="arc"
       sodipodi:cx="64.090477"
       sodipodi:cy="76.467697"
       sodipodi:rx="2.0890381"
       sodipodi:ry="3.3899121"
       sodipodi:start="5.9800505"
       sodipodi:end="5.9796884"
       sodipodi:arc-type="slice"
       d="m 66.084266,75.455762 a 2.0890381,3.3899121 0 0 1 -1.370002,4.247194 2.0890381,3.3899121 0 0 1 -2.617463,-2.222738 2.0890381,3.3899121 0 0 1 1.369528,-4.247596 2.0890381,3.3899121 0 0 1 2.617711,2.221969 l -1.993563,1.013106 z" />
    <path
       style="fill:#e3dbdb;fill-opacity:1;stroke:#000000;stroke-width:0"
       id="path14800-6-7-5-3-5-6"
       sodipodi:type="arc"
       sodipodi:cx="49.496292"
       sodipodi:cy="69.703995"
       sodipodi:rx="2.0890381"
       sodipodi:ry="3.3899121"
       sodipodi:start="5.9800505"
       sodipodi:end="5.9796884"
       sodipodi:arc-type="slice"
       d="m 51.490081,68.69206 a 2.0890381,3.3899121 0 0 1 -1.370002,4.247194 2.0890381,3.3899121 0 0 1 -2.617463,-2.222739 2.0890381,3.3899121 0 0 1 1.369528,-4.247596 2.0890381,3.3899121 0 0 1 2.617711,2.22197 l -1.993563,1.013106 z" />
    <path
       style="fill:#e3dbdb;fill-opacity:1;stroke:#000000;stroke-width:0"
       id="path14800-6-7-5-3-5-6-2"
       sodipodi:type="arc"
       sodipodi:cx="28.809172"
       sodipodi:cy="58.013657"
       sodipodi:rx="2.0890381"
       sodipodi:ry="3.3899121"
       sodipodi:start="5.9800505"
       sodipodi:end="5.9796884"
       sodipodi:arc-type="slice"
       d="m 30.802961,57.001722 a 2.0890381,3.3899121 0 0 1 -1.370003,4.247193 2.0890381,3.3899121 0 0 1 -2.617463,-2.222738 2.0890381,3.3899121 0 0 1 1.369529,-4.247596 2.0890381,3.3899121 0 0 1 2.617711,2.221969 l -1.993563,1.013107 z" />
    <path
       style="fill:#e3dbdb;fill-opacity:1;stroke:#000000;stroke-width:0"
       id="path14800-6-7-5-3-5-6-2-9"
       sodipodi:type="arc"
       sodipodi:cx="36.005333"
       sodipodi:cy="68.787918"
       sodipodi:rx="2.0890381"
       sodipodi:ry="3.3899121"
       sodipodi:start="5.9800505"
       sodipodi:end="5.9796884"
       sodipodi:arc-type="slice"
       d="m 37.999122,67.775983 a 2.0890381,3.3899121 0 0 1 -1.370002,4.247194 2.0890381,3.3899121 0 0 1 -2.617463,-2.222738 2.0890381,3.3899121 0 0 1 1.369528,-4.247596 2.0890381,3.3899121 0 0 1 2.617711,2.221969 l -1.993563,1.013106 z" />
    <path
       style="fill:#e3dbdb;fill-opacity:1;stroke:#000000;stroke-width:0"
       id="path14800-6-7-5-3-5-6-2-9-1"
       sodipodi:type="arc"
       sodipodi:cx="51.472839"
       sodipodi:cy="83.665268"
       sodipodi:rx="2.0890381"
       sodipodi:ry="3.3899121"
       sodipodi:start="5.9800505"
       sodipodi:end="5.9796884"
       sodipodi:arc-type="slice"
       d="m 53.466629,82.653333 a 2.0890381,3.3899121 0 0 1 -1.370003,4.247194 2.0890381,3.3899121 0 0 1 -2.617463,-2.222739 2.0890381,3.3899121 0 0 1 1.369529,-4.247596 2.0890381,3.3899121 0 0 1 2.617711,2.22197 l -1.993564,1.013106 z" />
    <path
       style="fill:#e3dbdb;fill-opacity:1;stroke:#000000;stroke-width:0"
       id="path14800-6-7-5-3-5-6-2-9-1-2"
       sodipodi:type="arc"
       sodipodi:cx="39.577831"
       sodipodi:cy="79.938568"
       sodipodi:rx="2.0890381"
       sodipodi:ry="3.3899121"
       sodipodi:start="5.9800505"
       sodipodi:end="5.9796884"
       sodipodi:arc-type="slice"
       d="m 41.571621,78.926633 a 2.0890381,3.3899121 0 0 1 -1.370003,4.247194 2.0890381,3.3899121 0 0 1 -2.617463,-2.222738 2.0890381,3.3899121 0 0 1 1.369529,-4.247596 2.0890381,3.3899121 0 0 1 2.617711,2.221969 l -1.993564,1.013106 z" />
  </g>
</svg>
