<?xml version="1.0" encoding="UTF-8" standalone="no"?>
<!-- Created with Inkscape (http://www.inkscape.org/) -->

<svg
   width="100"
   height="100"
   viewBox="0 0 100 100"
   version="1.1"
   id="svg5"
   inkscape:version="1.2 (dc2aeda, 2022-05-15)"
   sodipodi:docname="bonusPeach.svg"
   xmlns:inkscape="http://www.inkscape.org/namespaces/inkscape"
   xmlns:sodipodi="http://sodipodi.sourceforge.net/DTD/sodipodi-0.dtd"
   xmlns="http://www.w3.org/2000/svg"
   xmlns:svg="http://www.w3.org/2000/svg">
  <sodipodi:namedview
     id="namedview7"
     pagecolor="#ffffff"
     bordercolor="#000000"
     borderopacity="0.25"
     inkscape:showpageshadow="2"
     inkscape:pageopacity="0.0"
     inkscape:pagecheckerboard="0"
     inkscape:deskcolor="#d1d1d1"
     inkscape:document-units="px"
     showgrid="true"
     inkscape:zoom="5.5731762"
     inkscape:cx="6.010935"
     inkscape:cy="50.150935"
     inkscape:window-width="1920"
     inkscape:window-height="1016"
     inkscape:window-x="0"
     inkscape:window-y="0"
     inkscape:window-maximized="1"
     inkscape:current-layer="layer1">
    <inkscape:grid
       type="xygrid"
       id="grid9" />
  </sodipodi:namedview>
  <defs
     id="defs2" />
  <g
     inkscape:label="Layer 1"
     inkscape:groupmode="layer"
     id="layer1">
    <path
       id="path3846"
       style="fill:#ffcc00;stroke:#000000;stroke-width:0"
       d="M 83.45539,45.621999 C 89.20914,63.980352 78.961723,83.517757 60.566395,89.261441 42.171067,95.005125 22.592831,84.780364 16.83575,66.423051 11.078669,48.065738 23.053356,13.099259 39.716828,22.779474 c 4.739098,2.753057 12.713352,2.83121 17.974094,-0.375325 10.236223,-6.239197 21.918996,10.963764 25.760693,23.205814 L 50.144627,56.019516 Z"
       sodipodi:nodetypes="cssssccc" />
    <path
       style="fill:#008000;stroke:#000000;stroke-width:0"
       d="m 40.08318,24.927203 c -0.758539,-0.807616 -1.859494,-1.159795 -2.658521,-1.89664 -1.123585,-1.036147 -1.841887,-2.622977 -2.629083,-3.883698 -0.06479,-0.103768 -8e-4,-0.33814 -0.05747,-0.434559 -0.15709,-0.267256 -0.405857,-0.539779 -0.524976,-0.827064 -0.04931,-0.118919 0.06546,-0.349824 0,-0.462596 -0.128815,-0.221904 -0.304345,-0.393246 -0.362366,-0.655343 -0.15197,-0.686486 -0.244055,-1.305478 -0.52848,-1.95061 -0.05577,-0.126494 0.07154,-0.369243 0,-0.487127 -0.398667,-0.656922 -0.527638,-1.556508 -0.657446,-2.312976 -0.164628,-0.959386 0,-2.1294196 0,-3.1056969 0,-1.0011106 0.101552,-1.7304717 0.179431,-2.6641283 0.01767,-0.2118054 -0.05471,-0.478509 0,-0.6854821 0.126034,-0.476803 0.448469,-1.028737 0.66095,-1.5391806 0.03388,-0.081383 -0.05138,-0.2503195 0,-0.3182095 0.155676,-0.2057143 0.602761,0.619392 0.735947,0.7100137 0.297281,0.2022737 0.665252,0.048133 0.972151,0.1584038 0.263982,0.09485 0.93718,0.6513346 1.192935,0.793421 2.277485,1.2652692 3.782481,3.3434023 5.228729,5.4439059 0.462596,0.671866 1.142811,1.429841 1.368161,2.193122 0.06892,0.233446 0.381113,0.541273 0.520069,0.763282 0.381437,0.609423 1.580446,2.420434 1.754357,3.100089 0.03736,0.146006 -0.06,0.389257 0,0.531985 0.201251,0.478733 0.621984,0.949239 0.716322,1.471894 0.01468,0.08134 -0.05147,0.333251 0,0.412831 0.170944,0.264317 0.370123,0.532904 0.471707,0.836877 0.04648,0.139077 -0.08773,0.485128 0,0.59857 0.01849,0.0239 0.334178,0.229744 0.344844,0.24041 0.123459,0.123459 0.490442,0.61588 0.734545,0.426849 0.583978,-0.452227 0.719135,-1.134449 1.12705,-1.704594 0.557568,-0.779313 0.922342,-1.688104 1.520257,-2.428625 0.116764,-0.144613 -0.0058,-0.273874 0.06098,-0.418438 0.08423,-0.182211 0.343603,-0.338509 0.453484,-0.515163 0.09942,-0.15983 0.06107,-0.296174 0.17102,-0.452082 0.343597,-0.48721 0.947254,-0.960751 1.185225,-1.514649 0.423453,-0.985623 2.689042,-4.094738 3.552872,-4.7065567 0.907855,-0.6430005 1.816127,-1.2907756 2.8751,-1.6758565 0.280197,-0.10189 0.861084,0.016568 1.099715,-0.1219569 0.334327,-0.1940764 0.50172,-0.3488989 0.911172,-0.4233448 0.438686,-0.079761 3.078852,-0.1969463 3.296342,-0.3483483 0.277281,-0.1930241 0.999116,-0.5984799 1.355544,-0.3911032 0.03004,0.017477 -0.01705,0.201431 0,0.2383066 0.312231,0.6750926 0.378488,0.7720845 0.378488,1.6281952 0,0.5561234 0.215404,1.6495856 0,2.1342466 -0.120784,0.271762 -0.29979,0.527189 -0.410729,0.805336 -0.109737,0.275133 -0.07505,0.676982 -0.182235,0.918883 -0.193564,0.436838 -0.54745,0.853573 -0.728938,1.277043 -0.0463,0.108025 0.0483,0.317193 -0.05187,0.414233 -0.285842,0.276909 -0.716792,0.815547 -0.984768,1.221672 -0.261103,0.395709 -0.857819,0.875479 -1.239895,1.120742 -0.109495,0.07029 -1.166212,1.300328 -1.350638,1.556003 -0.964257,1.336778 -1.666963,2.793656 -2.635391,4.143031 -0.481998,0.671598 -2.018275,1.290682 -2.699875,1.731228 -0.177183,0.114521 -0.266455,0.328134 -0.415634,0.477314 -0.442192,0.442191 -1.831955,1.758218 -2.373254,1.900846 -0.865282,0.227995 -3.28511,-0.03294 -4.192796,-0.03294 -0.246434,0 -0.670803,-0.0842 -0.911172,0 -0.12811,0.04487 -0.209437,0.198687 -0.351853,0.252324 -0.370177,0.139417 -0.937188,0.06098 -1.32891,0.06098 -2.066068,0 -3.924886,-0.275045 -5.591095,-1.605066 z"
       id="path6360" />
    <path
       style="fill:#ffdd55;stroke:#000000;stroke-width:0"
       id="path7199-6-7"
       sodipodi:type="arc"
       sodipodi:cx="136.03265"
       sodipodi:cy="80.616707"
       sodipodi:rx="4.316062"
       sodipodi:ry="13.67745"
       sodipodi:start="5.9800505"
       sodipodi:end="5.9796884"
       sodipodi:arc-type="slice"
       d="m 140.15193,76.533803 a 4.316062,13.67745 0 0 1 -2.8305,17.136366 4.316062,13.67745 0 0 1 -5.40782,-8.968195 4.316062,13.67745 0 0 1 2.82952,-17.13799 4.316062,13.67745 0 0 1 5.40833,8.965092 l -4.11881,4.087631 z"
       transform="matrix(0.96665646,0.25607672,-0.81798908,0.57523375,0,0)" />
    <path
       style="fill:#ffdd55;stroke:#000000;stroke-width:0"
       id="path7199-3"
       sodipodi:type="arc"
       sodipodi:cx="-55.342766"
       sodipodi:cy="17.894793"
       sodipodi:rx="3.1825156"
       sodipodi:ry="8.6106834"
       sodipodi:start="5.9800505"
       sodipodi:end="5.9796884"
       sodipodi:arc-type="slice"
       d="m -52.305356,15.324387 a 3.1825156,8.6106834 0 0 1 -2.087111,10.788256 3.1825156,8.6106834 0 0 1 -3.987537,-5.645957 3.1825156,8.6106834 0 0 1 2.086389,-10.7892778 3.1825156,8.6106834 0 0 1 3.987915,5.6440028 l -3.037066,2.573382 z"
       transform="matrix(-0.76244829,-0.64704915,0.928968,-0.37016003,0,0)" />
  </g>
</svg>
