<?xml version="1.0" encoding="UTF-8" standalone="no"?>
<!-- Created with Inkscape (http://www.inkscape.org/) -->

<svg
   width="100"
   height="100"
   viewBox="0 0 100 100"
   version="1.1"
   id="svg5"
   inkscape:version="1.2 (dc2aeda, 2022-05-15)"
   sodipodi:docname="bonusKey.svg"
   xmlns:inkscape="http://www.inkscape.org/namespaces/inkscape"
   xmlns:sodipodi="http://sodipodi.sourceforge.net/DTD/sodipodi-0.dtd"
   xmlns="http://www.w3.org/2000/svg"
   xmlns:svg="http://www.w3.org/2000/svg">
  <sodipodi:namedview
     id="namedview7"
     pagecolor="#ffffff"
     bordercolor="#000000"
     borderopacity="0.25"
     inkscape:showpageshadow="2"
     inkscape:pageopacity="0.0"
     inkscape:pagecheckerboard="0"
     inkscape:deskcolor="#d1d1d1"
     inkscape:document-units="px"
     showgrid="true"
     inkscape:zoom="5.5731762"
     inkscape:cx="6.1903659"
     inkscape:cy="66.479147"
     inkscape:window-width="1920"
     inkscape:window-height="1016"
     inkscape:window-x="0"
     inkscape:window-y="0"
     inkscape:window-maximized="1"
     inkscape:current-layer="layer1">
    <inkscape:grid
       type="xygrid"
       id="grid9" />
  </sodipodi:namedview>
  <defs
     id="defs2" />
  <g
     inkscape:label="Layer 1"
     inkscape:groupmode="layer"
     id="layer1">
    <path
       id="rect46533"
       style="fill:#b3b3b3;stroke:#000000;stroke-width:0"
       d="m 40.200254,82.687907 0.258596,-13.85396 -0.09026,-30.845165 14.530186,-0.122132 -0.203526,9.778872 5.651575,2.674386 -0.127862,2.432667 -5.360114,2.43809 5.292986,2.927339 0.215427,2.733135 -5.178687,2.566936 0.200864,6.39912 4.219411,1.6728 0.09249,2.273002 -4.238843,3.94656 -0.127009,5.118942 -7.380462,10.391505 z"
       sodipodi:nodetypes="cccccccccccccccccc" />
    <path
       id="rect49596"
       style="fill:#e6e6e6;stroke:#000000;stroke-width:0"
       d="m 46.313872,38.132476 3.453901,-0.267744 0.400375,11.04772 2.982452,2.430905 -3.224896,2.368067 -0.03884,4.233164 3.933475,2.012742 -3.969822,1.948893 -0.09087,9.904788 4.044964,1.598978 -4.082277,2.467948 -0.06762,7.370896 -1.443187,3.67226 -1.89004,-3.635813 z"
       sodipodi:nodetypes="ccccccccccccccc" />
    <path
       style="fill:#4970ff;fill-opacity:1;stroke:#000000;stroke-width:0"
       id="path57668"
       sodipodi:type="arc"
       sodipodi:cx="47.682709"
       sodipodi:cy="25.316927"
       sodipodi:rx="15.778354"
       sodipodi:ry="16.245155"
       sodipodi:start="5.9800505"
       sodipodi:end="5.9796884"
       sodipodi:arc-type="slice"
       d="M 62.741655,20.467528 A 15.778354,16.245155 0 0 1 52.394124,40.820952 15.778354,16.245155 0 0 1 32.624616,30.169133 15.778354,16.245155 0 0 1 42.968567,9.8137806 15.778354,16.245155 0 0 1 62.739948,20.461914 l -15.057239,4.855013 z" />
  </g>
</svg>
