<svg width="100" height="100" xmlns="http://www.w3.org/2000/svg"><path d="M83.455 45.622c5.754 18.358-4.493 37.896-22.889 43.64-18.395 5.743-37.973-4.482-43.73-22.839-5.757-18.357 6.217-53.324 22.88-43.644 4.74 2.754 12.714 2.832 17.975-.375C67.927 16.165 79.61 33.368 83.45 45.61L50.146 56.02z" fill="#fc0"/><path d="M40.083 24.927c-.758-.807-1.86-1.16-2.658-1.896-1.124-1.037-1.842-2.623-2.63-3.884-.064-.104 0-.338-.057-.435-.157-.267-.406-.54-.525-.827-.05-.119.066-.35 0-.462-.129-.222-.304-.394-.362-.656-.152-.686-.244-1.305-.529-1.95-.055-.127.072-.37 0-.487-.398-.657-.527-1.557-.657-2.313-.165-.96 0-2.13 0-3.106 0-1.001.101-1.73.18-2.664.017-.212-.055-.479 0-.686.125-.477.448-1.028.66-1.539.034-.081-.051-.25 0-.318.156-.206.603.62.736.71.297.202.665.048.972.158.264.095.937.652 1.193.794 2.278 1.265 3.783 3.343 5.229 5.444.463.672 1.143 1.43 1.368 2.193.07.233.381.541.52.763.382.61 1.58 2.42 1.755 3.1.037.146-.06.39 0 .532.2.479.622.95.716 1.472.015.081-.052.333 0 .413.17.264.37.533.472.837.046.139-.088.485 0 .598.018.024.334.23.344.24.124.124.49.617.735.428.584-.453.72-1.135 1.127-1.705.558-.78.922-1.688 1.52-2.429.117-.144-.006-.274.061-.418.085-.182.344-.339.454-.515.1-.16.06-.296.17-.452.344-.488.948-.961 1.186-1.515.423-.986 2.689-4.095 3.553-4.707.908-.643 1.816-1.29 2.875-1.675.28-.102.861.016 1.1-.122.334-.194.501-.35.91-.424.44-.08 3.08-.197 3.297-.348.277-.193 1-.599 1.356-.391.03.017-.017.201 0 .238.312.675.378.772.378 1.628 0 .556.216 1.65 0 2.135-.12.271-.3.527-.41.805-.11.275-.076.677-.183.919-.193.437-.547.853-.729 1.277-.046.108.049.317-.052.414-.285.277-.716.816-.984 1.222-.261.395-.858.875-1.24 1.12-.11.07-1.166 1.3-1.35 1.556-.965 1.337-1.668 2.794-2.636 4.144-.482.671-2.019 1.29-2.7 1.73-.177.115-.267.329-.416.478-.442.442-1.832 1.758-2.373 1.9-.865.229-3.285-.032-4.193-.032-.246 0-.67-.084-.911 0-.128.045-.21.199-.352.252-.37.14-.937.061-1.329.061-2.066 0-3.925-.275-5.59-1.605z" fill="green"/><path d="M72.875 79.914a13.973 3.234-32.266 0 1-16.754 9.133 13.973 3.234-32.266 0 1 2.109-6.544 13.973 3.234-32.266 0 1 16.754-9.133 13.973 3.234-32.266 0 1-2.106 6.542l-7.325 1.296zM54.116 28.172a2.765 8.754 71.767 0 1 11.613-2.643 2.765 8.754 71.767 0 1-2.204 4.67 2.765 8.754 71.767 0 1-11.614 2.644 2.765 8.754 71.767 0 1 2.202-4.67l4.707 1.013z" fill="#fd5"/></svg>