<svg width="100" height="100" xmlns="http://www.w3.org/2000/svg"><path fill="none" d="M27.198 18.866h39.528V50.16H27.198z"/><path d="M48.51 71.109a16.092 16.569 0 0 1-10.553 20.759 16.092 16.569 0 0 1-20.162-10.864 16.092 16.569 0 0 1 10.55-20.761 16.092 16.569 0 0 1 20.163 10.86l-15.356 4.952z" fill="red"/><path d="M20.282 84.458s10.112 10.258 16.411 5.889c6.299-4.37.497-7.12-1.951-4.719-2.449 2.401-4.098 2.668-7.723.226-3.625-2.441.441.086-3.68-2.493-4.12-2.578-4.094-2.553-4.094-2.553z" fill="#fff"/><path d="M82.358 72.163a16.092 16.569 0 0 1-10.553 20.76 16.092 16.569 0 0 1-20.162-10.865 16.092 16.569 0 0 1 10.55-20.761 16.092 16.569 0 0 1 20.163 10.86L67 77.11z" fill="red"/><path d="M55.167 85.397s10.842 8.87 17.594 5.092c6.753-3.779.533-6.157-2.092-4.08-2.624 2.076-4.393 2.306-8.28.195-3.885-2.111.474.074-3.944-2.156-4.417-2.23-4.39-2.208-4.39-2.208z" fill="#fff"/><path d="M30.739 60.8c.078-.27.134-.547.234-.81.254-.664.773-1.311 1.034-2.005.204-.543.332-1.107.548-1.646.075-.189-.033-.553.06-.71.272-.454.654-.969.813-1.478.923-2.956 1.78-5.972 2.987-8.838.563-1.338 1.36-2.67 2.066-3.941.158-.284.402-.484.546-.787.493-1.036.904-2.104 1.463-3.109.899-1.616 2.165-3.044 3.288-4.504.246-.32.374-.758.61-1.097.49-.707.967-1.425 1.462-2.133.66-.943 1.422-1.794 2.134-2.683.646-.806 1.144-1.716 1.828-2.498.257-.293.587-.531.813-.817.72-.91.96-2.195 1.586-3.17.685-1.065 1.554-1.968 2.31-2.975.216-.287.33-.632.548-.914.345-.444.844-.814 1.159-1.28.853-1.26 2.061-2.979 3.368-3.894 1.095-.766 2.85-1.82 4.117-2.198.164-.05.263.014.436-.058.214-.089.305-.373.534-.424.063-.014.292.044.352 0 1.471-1.068 5.787-3.067 7.597-2.35.228.09.583.517.804.695.109.088.22.086.339.12.418.117.942.925 1.184 1.222.222.272.527.475.748.748.11.137-.001.224.06.358.148.322.685.663.76 1 .121.547.44 1.043.545 1.625.146.802.47 1.635.544 2.463.026.28-.033.571 0 .851.137 1.137.286 2.273.18 3.432-.089.982-.53 1.93-.606 2.903-.149 1.94-.154 3.916-.366 5.852-.074.68-.264 1.371-.302 2.067-.025.457.09 1.013 0 1.464-.35 1.747-.713 3.528-.976 5.303-.079.53.005 1.06-.061 1.585-.15 1.202-.671 2.216-1.15 3.304-.338.765-.615 1.707-.913 2.52-.222.603-.467 1.215-.67 1.824-.115.345.03.925-.122 1.216-.299.573-.687 1.182-.849 1.813-.603 2.358-1.16 4.797-1.52 7.238-.084.577-.483 1.084-.544 1.637-.053.473-.26.877-.3 1.365-.046.55.109 1.25-.116 1.754-.08.178 3.82 3.195 1.813 1.472-.165-.141-.885 1.688-1.033 1.87-.081.099-2.369-.362-4.293.053-1.9.409-1.887-1.113-2.13-.715-.547.902-.209-1.26-.402-1.26-.095 0-.329.05-.41 0-.016-.008 0-1.596 0-2.19 0-.654.414-1.36.466-2.036.022-.285-.047-.627 0-.914.043-.257.273-.402.328-.656.34-1.568.298-3.277.298-4.901 0-1.108.28-2.103.447-3.197.264-1.723-.161-3.746.529-5.351.098-.228.334-.394.42-.652.575-1.717 1.15-3.507 1.416-5.36.136-.951.125-1.92.244-2.866.132-1.057.357-1.992.423-3.08.016-.265.104-3.193.242-3.52.072-.17.341-.424.422-.666.225-.67.543-1.359.67-2.058.035-.196-.078-.5 0-.685.151-.36.295-.753.36-1.149.16-.954.062-2.073.062-3.05 0-.531.33-1.274-.094-1.696-.345-.344-.973-.657-1.505-.426-.303.131-.58.54-.85.729-1.25.873-2.004 2.046-2.927 3.23-.925 1.188-1.963 2.27-2.862 3.469-1.572 2.097-3.575 3.855-5.353 5.73-1.08 1.138-2.091 2.4-3.037 3.646-.119.157-.01.278-.06.451-.326 1.112-.981 2.59-1.586 3.597-.225.376-.542.618-.792.975-.637.912-1.428 2.068-1.95 3.048-.413.775-.693 1.632-1.159 2.377-.283.452-.645.975-.853 1.463-.05.12.052.304 0 .423-.242.559-.702 1.013-1.03 1.506-.187.28-.248.629-.427.915-.803 1.286-1.735 2.607-2.403 3.941-.407.815-1.457 1.623-2.012 2.387-.643.885-1.483 1.822-1.914 2.825-.143.333-.487 1.575-.668 1.756-.257.258-.226-.34-.246-.366-.006-.007.603 2.482.57 2.465-.294-.155-2.44-.344-2.626-.301-.4.093-2.029-.264-2.399-.093-.343.16-1.703-.184-1.978-.05-.95.467.81-.94-.273-1.13z" fill="#784421"/></svg>