<?xml version="1.0" encoding="UTF-8" standalone="no"?>
<!-- Created with Inkscape (http://www.inkscape.org/) -->

<svg
   width="100"
   height="100"
   viewBox="0 0 100 100"
   version="1.1"
   id="svg5"
   inkscape:version="1.2 (dc2aeda, 2022-05-15)"
   sodipodi:docname="blinky_left_alternate.svg"
   xmlns:inkscape="http://www.inkscape.org/namespaces/inkscape"
   xmlns:sodipodi="http://sodipodi.sourceforge.net/DTD/sodipodi-0.dtd"
   xmlns="http://www.w3.org/2000/svg"
   xmlns:svg="http://www.w3.org/2000/svg">
  <sodipodi:namedview
     id="namedview7"
     pagecolor="#ffffff"
     bordercolor="#000000"
     borderopacity="0.25"
     inkscape:showpageshadow="2"
     inkscape:pageopacity="0.0"
     inkscape:pagecheckerboard="0"
     inkscape:deskcolor="#d1d1d1"
     inkscape:document-units="px"
     showgrid="true"
     inkscape:zoom="5.5731762"
     inkscape:cx="46.203456"
     inkscape:cy="55.175001"
     inkscape:window-width="1920"
     inkscape:window-height="1016"
     inkscape:window-x="0"
     inkscape:window-y="0"
     inkscape:window-maximized="1"
     inkscape:current-layer="layer1">
    <inkscape:grid
       type="xygrid"
       id="grid2865" />
  </sodipodi:namedview>
  <defs
     id="defs2">
    <inkscape:perspective
       sodipodi:type="inkscape:persp3d"
       inkscape:vp_x="0 : 50 : 1"
       inkscape:vp_y="0 : 1000 : 0"
       inkscape:vp_z="100 : 50 : 1"
       inkscape:persp3d-origin="50 : 33.333333 : 1"
       id="perspective5340" />
  </defs>
  <g
     inkscape:label="Layer 1"
     inkscape:groupmode="layer"
     id="layer1">
    <path
       id="path13817"
       style="fill:#d40000;stroke-width:10"
       d="m 88.15059,38.241912 c 1.767402,5.650724 1.513313,11.354806 1.515831,16.912134 0.0069,15.133555 2.336145,24.776064 -0.602871,33.38026 -0.492324,1.441316 -9.464893,4.294697 -11.386284,-0.0055 -2.352881,-5.265926 0.166216,-12.612381 -3.370788,-13.598728 -2.973034,-0.829075 -6.346442,-1.7924 -6.816284,0.676786 -1.023113,5.376824 -1.040836,9.835615 -2.912243,12.643041 -1.957218,2.936158 -5.909991,3.024782 -7.82334,1.346474 -2.506845,-2.198897 -3.947575,-10.75048 -5.287843,-15.095094 -1.124196,-3.644195 -10.984238,-2.963392 -12.566499,0.0078 -0.47283,0.887879 0.451636,11.588945 -2.172621,15.049865 -2.118493,2.793911 -5.258161,1.867448 -6.915985,-1.177577 -2.447128,-4.494787 -1.3199,-13.87087 -3.808839,-13.810567 -3.350308,0.08117 2.205275,-0.755584 -5.128955,0.12358 -3.240609,0.388456 -3.722974,10.846057 -5.548499,13.397267 -0.860913,1.203144 -2.274466,3.597979 -4.336131,-2.163949 C 9.9983419,83.158306 10.528036,56.442006 10.279775,53.627516 8.6674062,35.348351 19.89767,17.771464 38.127833,12.0641 46.669214,9.3900281 55.434158,9.7326425 63.274037,12.49111 74.743495,16.526648 84.233072,25.732745 88.146273,38.228118 L 50.05386,50.157593 Z"
       sodipodi:nodetypes="cssssssssssssssssssccc" />
    <path
       style="fill:#ffffff;fill-opacity:1;stroke-width:10"
       id="path14682-2-3"
       sodipodi:type="arc"
       sodipodi:cx="28.706141"
       sodipodi:cy="38.032341"
       sodipodi:rx="10.931968"
       sodipodi:ry="10.931968"
       sodipodi:start="5.9800505"
       sodipodi:end="5.9796884"
       sodipodi:arc-type="slice"
       d="M 39.13967,34.769001 A 10.931968,10.931968 0 0 1 31.970425,48.465575 10.931968,10.931968 0 0 1 18.273203,41.29757 10.931968,10.931968 0 0 1 25.439967,27.599699 10.931968,10.931968 0 0 1 39.138487,34.765223 L 28.706141,38.032341 Z" />
    <path
       style="fill:#0000ff;fill-opacity:1;stroke-width:10"
       id="path14684-0-1"
       sodipodi:type="arc"
       sodipodi:cx="26.361273"
       sodipodi:cy="39.805279"
       sodipodi:rx="7.4334154"
       sodipodi:ry="7.4334154"
       sodipodi:start="5.9800505"
       sodipodi:end="5.9796884"
       sodipodi:arc-type="slice"
       d="m 33.455765,37.586304 a 7.4334154,7.4334154 0 0 1 -4.874875,9.313266 7.4334154,7.4334154 0 0 1 -9.313707,-4.874032 7.4334154,7.4334154 0 0 1 4.873188,-9.314148 7.4334154,7.4334154 0 0 1 9.31459,4.872345 l -7.093688,2.221544 z" />
    <path
       style="fill:#ffffff;fill-opacity:1;stroke-width:10"
       id="path14682-2-3-9"
       sodipodi:type="arc"
       sodipodi:cx="55.364948"
       sodipodi:cy="38.088409"
       sodipodi:rx="10.931968"
       sodipodi:ry="10.931968"
       sodipodi:start="5.9800505"
       sodipodi:end="5.9796884"
       sodipodi:arc-type="slice"
       d="M 65.798477,34.825069 A 10.931968,10.931968 0 0 1 58.629233,48.521643 10.931968,10.931968 0 0 1 44.93201,41.353639 10.931968,10.931968 0 0 1 52.098774,27.655767 10.931968,10.931968 0 0 1 65.797295,34.821291 l -10.432347,3.267118 z" />
    <path
       style="fill:#0000ff;fill-opacity:1;stroke-width:10"
       id="path14684-0-1-4"
       sodipodi:type="arc"
       sodipodi:cx="53.020081"
       sodipodi:cy="39.861347"
       sodipodi:rx="7.4334154"
       sodipodi:ry="7.4334154"
       sodipodi:start="5.9800505"
       sodipodi:end="5.9796884"
       sodipodi:arc-type="slice"
       d="m 60.114572,37.642372 a 7.4334154,7.4334154 0 0 1 -4.874874,9.313266 7.4334154,7.4334154 0 0 1 -9.313707,-4.874031 7.4334154,7.4334154 0 0 1 4.873188,-9.314149 7.4334154,7.4334154 0 0 1 9.314589,4.872345 l -7.093687,2.221544 z" />
  </g>
</svg>
