<svg width="100" height="100" xmlns="http://www.w3.org/2000/svg"><path d="M88.15 38.242c1.768 5.65 1.514 11.355 1.516 16.912.007 15.134 2.337 24.776-.602 33.38-.493 1.442-9.725 5.074-11.647.774-2.353-5.266-.177-14.925-3.714-15.912-2.973-.829-6.597-1.566-7.067.903-1.023 5.377.657 12.582-1.214 15.39-1.957 2.936-6.735.93-8.648-.748-2.507-2.199-1.175-10.348-2.516-14.693-1.124-3.644-8.725-3.996-10.307-1.025-.473.888 1.413 13.45-1.212 16.91-2.118 2.795-4.233 3.175-5.891.13-2.447-4.495-.273-16.25-2.615-17.137-3.134-1.188 1.164-1.606-6.17.237-3.165.795-2.59 14.278-4.416 16.83-.86 1.202-10.596 1.497-12.658-4.265-.99-2.77-.461-29.486-.71-32.3-1.612-18.28 9.619-35.857 27.849-41.564a39.74 39.74 0 0 1 25.146.427c11.47 4.036 20.96 13.242 24.872 25.737l-38.092 11.93z" fill="#f16c00"/></svg>