<svg width="100" height="100" xmlns="http://www.w3.org/2000/svg"><path d="M88.15 38.242c1.768 5.65 1.514 11.355 1.516 16.912.007 15.134 2.337 24.776-.602 33.38-.493 1.442-2.648 5.304-4.57 1.003-2.353-5.266-.084-15.517-3.62-16.504-2.974-.829-5.929.29-6.399 2.76-1.023 5.376 2.008 11.76.137 14.567-1.957 2.936-5.576 1.945-7.49.267-2.506-2.2-1.564-12.89-2.904-17.234-1.125-3.644-9.901-4.662-11.483-1.691-.473.888 2.393 13.55-.231 17.01-2.119 2.794-8.214 3.81-9.871.765-2.448-4.495-1.657-16.107-4-16.995-3.134-1.188-4.615-6.132-11.269-2.54-2.984 1.612-1.737 16.182-3.563 18.733-.86 1.204-10.75 3.015-12.812-2.747-.99-2.77-.461-29.486-.71-32.3-1.612-18.28 9.619-35.857 27.849-41.564a39.74 39.74 0 0 1 25.146.427c11.47 4.036 20.96 13.242 24.872 25.737l-38.092 11.93z" fill="#f16c00"/><path d="M39.134 34.957a10.932 10.932 0 0 1-7.17 13.696 10.932 10.932 0 0 1-13.696-7.168 10.932 10.932 0 0 1 7.166-13.697 10.932 10.932 0 0 1 13.699 7.165L28.7 38.22z" fill="#fff"/><path d="M33.45 37.774a7.433 7.433 0 0 1-4.875 9.313 7.433 7.433 0 0 1-9.313-4.874 7.433 7.433 0 0 1 4.873-9.314 7.433 7.433 0 0 1 9.314 4.873l-7.093 2.221z" fill="#00f"/><path d="M66.505 35.029a10.932 10.932 0 0 1-7.17 13.697 10.932 10.932 0 0 1-13.696-7.168 10.932 10.932 0 0 1 7.166-13.698 10.932 10.932 0 0 1 13.699 7.165L56.07 38.292z" fill="#fff"/><path d="M60.821 37.846a7.433 7.433 0 0 1-4.875 9.314 7.433 7.433 0 0 1-9.314-4.874 7.433 7.433 0 0 1 4.874-9.315 7.433 7.433 0 0 1 9.314 4.873l-7.093 2.221z" fill="#00f"/></svg>