<svg width="100" height="100" xmlns="http://www.w3.org/2000/svg"><path d="M88.15 38.242c1.768 5.65 1.514 11.355 1.516 16.912.007 15.134 2.337 24.776-.602 33.38-.493 1.442-1.69 5.849-3.61 1.549-2.354-5.266.105-14.678-3.432-15.665-2.973-.829-3.91-2.94-4.38-.47-1.022 5.377.442 13.44-1.43 16.248-1.957 2.936-5.152 2.85-7.065 1.17-2.507-2.198-3.113-10.912-4.453-15.257-1.124-3.644-7.244-4.809-8.628-1.74-.694 1.538-1.678 12.278-4.303 15.74-2.118 2.793-6.948 2.02-8.605-1.025-2.448-4.494-4.832-14.14-7.174-15.028-3.134-1.188-1.937-1.056-9.272.786-3.165.795-3.193 13.006-5.018 15.557-.861 1.203-8.643 1.29-10.705-4.471-.99-2.77-.461-29.486-.71-32.3-1.612-18.28 9.619-35.857 27.849-41.564a39.74 39.74 0 0 1 25.146.427c11.47 4.036 20.96 13.242 24.872 25.737l-38.092 11.93z" fill="#f16c00"/><path d="M74.633 32.778a10.932 10.932 0 0 1-7.17 13.697 10.932 10.932 0 0 1-13.697-7.168 10.932 10.932 0 0 1 7.167-13.698 10.932 10.932 0 0 1 13.698 7.166L64.2 36.042z" fill="#fff"/><path d="M71.269 35.959a7.433 7.433 0 0 1-4.875 9.313 7.433 7.433 0 0 1-9.314-4.874 7.433 7.433 0 0 1 4.873-9.314 7.433 7.433 0 0 1 9.315 4.872l-7.094 2.222z" fill="#00f"/><path d="M46.815 32.827a10.932 10.932 0 0 1-7.169 13.696 10.932 10.932 0 0 1-13.697-7.168 10.932 10.932 0 0 1 7.167-13.698 10.932 10.932 0 0 1 13.698 7.166L36.382 36.09z" fill="#fff"/><path d="M43.451 36.007a7.433 7.433 0 0 1-4.875 9.313 7.433 7.433 0 0 1-9.313-4.874 7.433 7.433 0 0 1 4.873-9.314 7.433 7.433 0 0 1 9.315 4.873l-7.094 2.221z" fill="#00f"/></svg>