<svg width="100" height="100" xmlns="http://www.w3.org/2000/svg"><path d="M88.15 38.242c1.768 5.65 1.514 11.355 1.516 16.912.007 15.134 2.337 24.776-.602 33.38-.493 1.442-2.53 5.21-4.45.91-2.353-5.266-1.03-14.212-4.568-15.198-2.973-.83-4.234-2.118-4.704.35-1.023 5.378.055 12.428-1.816 15.236-1.958 2.936-4.867 1.945-6.78.266-2.508-2.199-.03-11.627-1.37-15.972-1.125-3.644-9.97-4.086-11.551-1.115-.473.888-1.375 13.098-3.999 16.56-2.118 2.793-6.727 3.184-8.385.139-2.447-4.495-3.015-15.36-5.358-16.249-3.133-1.188-1.56-1.575-8.893.267-3.166.796.493 12.203-1.332 14.754-.861 1.203-12.807 3.208-14.869-2.554-.99-2.77-.461-29.486-.71-32.3-1.612-18.28 9.619-35.857 27.849-41.564a39.74 39.74 0 0 1 25.146.427c11.47 4.036 20.96 13.242 24.872 25.737l-38.092 11.93z" fill="#f16c00"/><path d="M54.463 35.166a10.932 10.932 0 0 1-7.17 13.697 10.932 10.932 0 0 1-13.697-7.168 10.932 10.932 0 0 1 7.167-13.698 10.932 10.932 0 0 1 13.699 7.166L44.029 38.43z" fill="#fff"/><path d="M53.59 38.042a7.433 7.433 0 0 1-4.874 9.313 7.433 7.433 0 0 1-9.314-4.874 7.433 7.433 0 0 1 4.873-9.314 7.433 7.433 0 0 1 9.315 4.872l-7.094 2.222z" fill="#00f"/><path d="M81.851 35.021a10.932 10.932 0 0 1-7.169 13.697 10.932 10.932 0 0 1-13.697-7.168 10.932 10.932 0 0 1 7.167-13.698 10.932 10.932 0 0 1 13.698 7.166l-10.432 3.267z" fill="#fff"/><path d="M80.979 37.897a7.433 7.433 0 0 1-4.875 9.313 7.433 7.433 0 0 1-9.314-4.874 7.433 7.433 0 0 1 4.874-9.314 7.433 7.433 0 0 1 9.314 4.872l-7.093 2.222z" fill="#00f"/></svg>